<?xml version="1.0" encoding="UTF-8" standalone="no"?>
<!-- Created with Inkscape (http://www.inkscape.org/) -->

<svg
   width="165mm"
   height="165mm"
   viewBox="0 0 165 149"
   version="1.1"
   id="svg1"
   sodipodi:docname="luduvo-api-wrapper2.svg"
   inkscape:version="1.4.3 (0d15f75, 2025-12-25)"
   xmlns:inkscape="http://www.inkscape.org/namespaces/inkscape"
   xmlns:sodipodi="http://sodipodi.sourceforge.net/DTD/sodipodi-0.dtd"
   xmlns="http://www.w3.org/2000/svg"
   xmlns:svg="http://www.w3.org/2000/svg">
  <sodipodi:namedview
     id="namedview1"
     pagecolor="#ffffff"
     bordercolor="#000000"
     borderopacity="0.25"
     inkscape:showpageshadow="2"
     inkscape:pageopacity="0.0"
     inkscape:pagecheckerboard="0"
     inkscape:deskcolor="#d1d1d1"
     inkscape:document-units="mm"
     inkscape:zoom="1"
     inkscape:cx="198"
     inkscape:cy="322.5"
     inkscape:window-width="1920"
     inkscape:window-height="1027"
     inkscape:window-x="-8"
     inkscape:window-y="-8"
     inkscape:window-maximized="1"
     inkscape:current-layer="layer1" />
  <defs
     id="defs1" />
  <g
     inkscape:label="Layer 1"
     inkscape:groupmode="layer"
     id="layer1">
    <g
       inkscape:groupmode="layer"
       id="layer2"
       inkscape:label="Layer 2"
       transform="matrix(1.3789464,0,0,1.3789464,-31.7568,-39.673101)">
      <path
         style="opacity:1;fill:#ffffff;fill-opacity:1;fill-rule:nonzero;stroke:#ffffff;stroke-width:8.53606;stroke-dasharray:none;stroke-opacity:1"
         d="m 347.14586,503.52249 c -1.3315,-0.57988 -11.20835,-11.0493 -25.65666,-27.19593 -13.82198,-15.44668 -23.99123,-26.24643 -24.70516,-26.23691 -0.66738,0.009 -32.07591,6.02128 -69.79675,13.36083 -60.66342,11.80363 -68.86203,13.25115 -70.99669,12.53496 -3.04026,-1.02001 -5.14315,-3.80684 -5.20819,-6.90209 -0.0307,-1.46229 8.94566,-27.39165 23.08144,-66.67354 12.72245,-35.35437 22.99807,-64.62859 22.83472,-65.05382 -0.16335,-0.42524 -21.16302,-24.071 -46.66593,-52.54615 -36.84936,-41.14394 -46.46182,-52.26807 -46.82135,-54.18454 -0.5281,-2.81501 0.9699,-6.25338 3.42535,-7.86226 0.88102,-0.57727 33.09195,-7.13076 71.57984,-14.56331 38.4879,-7.43254 70.09278,-13.62759 70.23307,-13.76677 0.14029,-0.13917 5.61411,-14.9875 12.16405,-32.99628 10.14742,-27.89993 12.22937,-33.03088 14.075,-34.68779 2.3519,-2.11142 5.12301,-2.48984 8.14609,-1.11243 1.39305,0.63472 43.6419,47.00119 47.4224,52.04425 0.62651,0.83574 11.84321,-1.15891 70.35713,-12.51153 38.28648,-7.42817 70.18444,-13.50329 70.88434,-13.50027 3.57176,0.0154 7.56628,4.14276 7.56628,7.81786 0,0.83525 -10.2191,29.56843 -22.70912,63.85151 -12.49002,34.28307 -23.13849,63.53447 -23.66327,65.00309 l -0.95414,2.67023 37.98273,42.23105 c 63.10065,70.15837 56.01285,61.85678 56.01285,65.60508 0,2.63746 -0.38337,3.63463 -2.03072,5.28197 -1.11689,1.1169 -2.78743,2.21849 -3.71231,2.448 -0.92487,0.22951 -32.35328,6.27306 -69.8409,13.43011 -37.48763,7.15705 -68.38955,13.26998 -68.67094,13.58428 -0.2814,0.31431 -5.84711,15.36768 -12.36826,33.45194 -6.52114,18.08425 -12.37109,33.48123 -12.99989,34.21549 -1.07198,1.25179 -5.01932,3.29493 -6.24708,3.23349 -0.30418,-0.0152 -1.52724,-0.45195 -2.71793,-0.97052 z m -13.78848,-48.59587 c -1.08868,-6.29268 -1.92349,-9.35229 -2.62525,-9.62158 -0.99446,-0.38161 -11.33204,1.56292 -12.03247,2.26334 -0.53408,0.53408 2.88131,4.72882 9.59108,11.77965 3.36641,3.53751 6.24274,6.06588 6.39184,5.61858 0.14909,-0.44729 -0.44725,-4.96529 -1.3252,-10.03999 z m 24.29145,-3.67932 c 4.72139,-12.93123 4.58205,-11.79177 1.43229,-11.71255 -1.48462,0.0373 -4.29029,0.43569 -6.23484,0.88525 -3.12671,0.72287 -3.56217,1.05002 -3.76591,2.82928 -0.21841,1.90742 2.45962,17.06754 3.25421,18.42179 0.67552,1.15131 2.12883,-1.69933 5.31425,-10.42377 z m -149.40227,-0.13722 c 43.26784,-8.33452 109.47194,-21.54168 111.21491,-22.18644 1.52269,-0.56328 4.67843,3.22908 -29.17879,-35.06516 -51.73863,-58.51905 -66.2069,-74.59977 -67.11947,-74.59977 -0.78424,0 -10.59336,26.39657 -36.26157,97.58074 -14.01719,38.87307 -14.75497,41.01219 -14.14507,41.01219 0.27049,0 16.24099,-3.0337 35.48999,-6.74156 z m 152.46205,-29.70126 c 10.48936,-1.81645 137.69008,-26.50441 139.34805,-27.04558 1.40931,-0.46002 0.78247,-1.35423 -7.07106,-10.08716 -4.73961,-5.27032 -23.76456,-26.43833 -42.27768,-47.04003 -37.79693,-42.06101 -48.6714,-53.66184 -49.51301,-52.82023 -0.31786,0.31786 -2.52504,5.98062 -4.90484,12.58389 -8.77739,24.35476 -44.50445,124.82707 -44.50445,125.15625 0,0.58241 2.41116,0.38052 8.92299,-0.74714 z M 320.351,388.20328 c -1.37858,-6.59095 -2.5065,-12.08251 -2.5065,-12.20348 0,-0.22774 -22.60121,-15.11525 -36.64877,-24.14067 -8.06301,-5.18041 -10.35553,-5.94491 -7.08967,-2.36423 0.97176,1.06544 6.50934,7.34654 12.30574,13.95798 5.79639,6.61145 16.27414,18.37682 23.28389,26.14526 11.02426,12.21745 12.77314,13.88575 12.95341,12.35656 0.11462,-0.97234 -0.91953,-7.16047 -2.2981,-13.75142 z m 26.17821,-2.58635 c 11.16211,-31.15291 19.44514,-55.33035 19.25288,-56.19749 -0.23822,-1.07441 -7.25722,8.64144 -20.91019,28.94433 l -9.48971,14.11184 0.48072,3.97392 c 0.57034,4.71487 2.97067,17.66056 4.00891,21.62129 0.93681,3.57377 0.86965,3.6994 6.65739,-12.45389 z M 332.34019,345.9974 c 29.32468,-41.99561 45.88321,-66.29754 45.4608,-66.71996 -0.55288,-0.55288 -132.44565,25.26059 -133.26761,26.08255 -0.26307,0.26307 0.13486,0.94878 0.88429,1.52381 9.47284,7.26848 75.76579,51.15177 77.37657,51.22022 0.59845,0.0254 4.75838,-5.25039 9.54595,-12.10662 z M 206.49342,311.96232 c 1.09897,-3.23679 1.78978,-6.42804 1.53512,-7.09166 -0.41267,-1.07541 -38.37916,-26.71887 -41.11047,-27.76696 -2.96338,-1.13716 -1.14923,1.0661 21.73723,26.39955 10.04321,11.11702 14.43401,15.51099 15.01663,15.02747 0.45284,-0.37584 1.72251,-3.33162 2.82149,-6.5684 z m 70.69244,-30.8737 c 84.23983,-16.51786 101.80693,-20.18137 102.01756,-21.27512 0.31196,-1.61987 -5.41213,-8.36231 -40.47976,-47.68147 -39.61272,-44.41526 -55.01857,-61.24776 -55.54695,-60.69083 -0.60182,0.63435 -10.89603,28.58445 -27.69171,75.18652 -18.58039,51.55403 -21.85867,61.01666 -21.48037,62.00248 0.22774,0.59346 0.98849,0.822 1.97673,0.5938 0.88359,-0.20403 19.42561,-3.86494 41.2045,-8.13538 z m -56.78676,-7.8396 c 8.6367,-23.45859 20.37076,-56.89075 20.37076,-58.03947 0,-0.99891 -1.08655,-0.93175 -9.72272,0.60088 -7.50116,1.33121 -85.43806,16.70886 -93.33809,18.41644 -0.87505,0.18914 -1.591,0.62154 -1.591,0.96089 0,1.49349 77.24135,51.84202 78.75732,51.3367 0.39883,-0.13294 2.88451,-6.10689 5.52373,-13.27544 z m 203.87714,-7.43374 c 6.91205,-18.88958 13.77641,-38.95842 13.77641,-40.27713 0,-0.80781 -1.61602,0.87644 -4.12605,4.30025 -7.89724,10.77225 -24.15817,34.52477 -24.15039,35.27675 0.0125,1.20472 9.27444,11.09794 10.12454,10.81457 0.42246,-0.14082 2.39143,-4.69231 4.37549,-10.11444 z m -16.4131,-28.75773 c 25.141,-36.13953 43.1524,-62.75646 42.74342,-63.16545 -0.49607,-0.49607 -100.62186,18.29202 -103.34624,19.3924 -1.17684,0.47532 -0.52026,1.50163 5.29764,8.28083 16.91863,19.71417 43.98268,49.10402 45.21809,49.10402 0.33981,0 4.879,-6.12531 10.08709,-13.6118 z"
         id="path48"
         transform="scale(0.26458333)" />
    </g>
    <path
       d="m 88.528177,122.26217 -6.95e-4,8.3e-4 c -0.478497,-0.009 -4.315094,0.79199 -4.474367,0.95129 -0.0687,0.066 1.163685,1.54911 2.737063,3.28801 1.573261,1.73828 2.922892,3.09667 2.998574,3.02113 0.07636,-0.0749 -0.166944,-1.71 -0.538694,-3.63553 -0.371628,-1.92594 -0.673413,-3.55125 -0.673413,-3.60985 0,0 -7.15e-4,-8.4e-4 -7.15e-4,-8.4e-4 0,0 0,-5.9e-4 0,-5.9e-4 0,0 0,-8.3e-4 0,-8.3e-4 0,0 -6.96e-4,-6.6e-4 -6.96e-4,-6.6e-4 0,0 0,-8.3e-4 0,-8.3e-4 0,0 -7.18e-4,-5.6e-4 -7.18e-4,-5.6e-4 0,0 -7.31e-4,-9.2e-4 -7.31e-4,-9.2e-4 0,0 -6.86e-4,-7e-4 -6.86e-4,-7e-4 -0.0051,-0.004 -0.02198,-0.007 -0.04516,-0.008 z"
       style="fill:#5027d5;stroke-width:3.97273;stroke-linecap:round;stroke-linejoin:round"
       id="path38" />
    <path
       d="m 99.490024,120.1584 c -0.434141,-0.0183 -3.466108,0.53137 -4.227144,0.77594 -0.335332,0.10852 0.130142,3.19549 1.060326,7.06569 0.157115,0.65304 0.512373,-0.0502 1.74441,-3.4488 0.852048,-2.34902 1.516394,-4.31967 1.475044,-4.3806 0,0 0,-7.8e-4 0,-7.8e-4 0,0 -6.9e-4,0 -6.9e-4,0 0,0 0,-5.6e-4 0,-5.6e-4 0,0 -6.3e-4,-8.3e-4 -6.3e-4,-8.3e-4 0,0 -7.2e-4,-5.5e-4 -7.2e-4,-5.5e-4 0,0 -7.2e-4,0 -7.2e-4,0 -0.005,-0.003 -0.0274,-0.007 -0.05058,-0.007 z"
       style="fill:#5027d5;stroke-width:3.97273;stroke-linecap:round;stroke-linejoin:round"
       id="path37" />
    <path
       d="m 67.275853,86.4694 c -0.06217,0.0537 3.984198,4.69579 8.99007,10.31831 5.005864,5.6226 9.144392,10.17865 9.195294,10.12457 0.184773,-0.19629 -1.812731,-9.94993 -2.055838,-10.03838 -0.137908,-0.0502 -3.796406,-2.43394 -8.132114,-5.29736 -4.335683,-2.86349 -7.935619,-5.16125 -7.997412,-5.10714 z"
       style="fill:#5027d5;stroke-width:3.97273;stroke-linecap:round;stroke-linejoin:round"
       id="path36" />
    <path
       d="m 101.2722,79.82376 c -0.16333,-0.1633 -10.796066,15.37113 -10.966087,16.02119 -0.09122,0.34685 0.250372,2.76829 0.759607,5.38009 0.509121,2.61177 0.961158,4.71465 1.003327,4.67232 0.174988,-0.17495 9.286933,-25.98991 9.203153,-26.0736 z"
       style="fill:#5027d5;stroke-width:3.97273;stroke-linecap:round;stroke-linejoin:round"
       id="path35" />
    <path
       d="m 49.203103,76.29715 c -0.190153,-0.11743 -8.11059,21.51402 -17.297425,47.23213 l -1.160832,3.24562 0.913546,-0.17585 C 54.251785,122.30762 84.613556,116.29282 84.551209,116.11908 84.449213,115.8327 49.538473,76.50433 49.203103,76.29715 Z"
       style="fill:#5027d5;stroke-width:3.97273;stroke-linecap:round;stroke-linejoin:round"
       id="path34" />
    <path
       d="m 114.20511,63.518959 c -0.12559,0.146627 -4.18886,11.426081 -9.03226,25.065391 -4.84317,13.63926 -8.865545,24.96488 -8.940123,25.16522 -0.08357,0.22559 1.963062,-0.041 5.380043,-0.70055 3.03541,-0.58623 15.29566,-2.96241 27.24206,-5.27867 l 21.71969,-4.21241 -4.14926,-4.61319 C 144.14297,96.40801 136.0095,87.34115 128.35297,78.79407 120.69614,70.24706 114.32989,63.372263 114.20511,63.518959 Z"
       style="fill:#5027d5;stroke-width:3.97273;stroke-linecap:round;stroke-linejoin:round"
       id="path33" />
    <path
       d="m 105.53699,61.751711 c -0.0585,-0.05849 -42.181718,8.148989 -48.635733,9.476049 -0.329327,0.0676 5.385276,4.02385 13.999535,9.69338 8.005503,5.26884 14.627556,9.58901 14.717888,9.59933 0.191394,0.022 20.04038,-28.64678 19.91831,-28.768759 z"
       style="fill:#5027d5;stroke-width:3.97273;stroke-linecap:round;stroke-linejoin:round"
       id="path32" />
    <path
       d="m 28.191628,60.845304 c -0.06101,0.05333 2.953008,3.509893 6.697639,7.679592 3.74456,4.169644 6.903004,7.577714 7.016927,7.577714 0.188882,0 1.834904,-4.46671 1.834904,-4.97959 0,-0.25468 -15.384252,-10.423143 -15.54947,-10.277716 z"
       style="fill:#5027d5;stroke-width:3.97273;stroke-linecap:round;stroke-linejoin:round"
       id="path31" />
    <path
       d="m 127.58037,41.920304 c -9.3e-4,9.9e-5 -0.003,9.56e-4 -0.005,0.0016 -0.18525,0.08075 -2.47281,3.246312 -5.20797,7.203574 l -5.1368,7.425214 1.81712,2.065802 c 0.97752,1.113669 1.83312,1.977069 1.92757,1.948945 2.6e-4,-1.37e-4 9.2e-4,-5.53e-4 0.002,-7.27e-4 0,0 7.6e-4,-7.01e-4 7.6e-4,-7.01e-4 0,0 6.5e-4,-7.16e-4 6.5e-4,-7.16e-4 0.24976,-0.249635 6.69354,-18.422403 6.60885,-18.637827 0,-5.2e-4 2e-5,-0.0012 0,-0.0015 0,0 0,-7.03e-4 0,-7.03e-4 0,0 -7.8e-4,-6.96e-4 -7.8e-4,-6.96e-4 0,0 0,-7.4e-4 0,-7.4e-4 0,0 -9e-4,0 -9e-4,0 0,0 0,-7.12e-4 0,-7.12e-4 0,0 -8.1e-4,0 -8.1e-4,0 0,0 -8.2e-4,0 -8.2e-4,0 0,0 -7e-4,-6.98e-4 -7e-4,-6.98e-4 0,0 -6.9e-4,0 -6.9e-4,0 -3.2e-4,-2.5e-5 -8.1e-4,-5.1e-5 -9.4e-4,0 z"
       style="fill:#5027d5;stroke-width:3.97273;stroke-linecap:round;stroke-linejoin:round"
       id="path30" />
    <path
       d="m 55.609325,38.103644 c -0.21031,-0.210233 -38.314971,7.275621 -38.231276,7.510723 0.04697,0.131137 6.509758,4.452583 14.363001,9.600028 7.853266,5.147524 14.346973,9.289016 14.429986,9.205986 0.248884,-0.248985 9.555754,-26.199151 9.438289,-26.316737 z"
       style="fill:#5027d5;stroke-width:3.97273;stroke-linecap:round;stroke-linejoin:round"
       id="path29" />
    <path
       d="m 132.11584,23.296022 c -0.0597,-0.06107 -8.56018,1.522059 -18.88493,3.519476 -10.32469,1.997378 -18.915925,3.631373 -19.091083,3.631373 -0.175105,0 3.924536,4.731061 9.109883,10.513592 5.1853,5.782453 9.53338,10.402653 9.66318,10.265556 0.5978,-0.630979 19.3003,-27.832891 19.20295,-27.929997 z"
       style="fill:#5027d5;stroke-width:3.97273;stroke-linecap:round;stroke-linejoin:round"
       id="path28" />
    <path
       d="m 71.15805,15.032818 c -0.172489,-0.02102 -18.080895,49.532848 -18.064891,49.986854 0,0.135491 0.118383,0.247725 0.254375,0.247973 0.576121,0 52.197896,-10.218613 52.732446,-10.439475 0.48479,-0.2002 -2.53012,-3.730677 -17.080756,-20.008837 C 79.281481,23.9479 71.25169,15.044218 71.15805,15.032818 Z"
       style="fill:#5027d5;stroke-width:3.97273;stroke-linecap:round;stroke-linejoin:round"
       id="path27" />
    <path
       d="m 69.254014,0.00708518 c -0.354948,0.01917 -0.708937,0.0621 -1.058913,0.128974 C 65.390324,0.6716992 62.935454,2.7580822 61.957069,5.4405912 v 0.0042 L 54.419989,26.142123 6.7055773,35.353046 c -2.8657311,0.55333 -5.3584275,2.733795 -6.29004701,5.499777 -0.93148013,2.765992 -0.26535967,6.009952 1.68171941,8.184138 L 33.565317,84.17199 17.80991,127.97006 v 0.003 c -0.985412,2.74384 -0.386246,5.99442 1.512823,8.2067 1.899236,2.21251 5.028072,3.29911 7.889807,2.74081 l 47.163576,-9.16932 14.878926,16.64692 c 1.901707,2.1285 4.95442,3.1563 7.757258,2.6162 2.80265,-0.53948 5.25546,-2.62937 6.23007,-5.31237 v -6.8e-4 -5.7e-4 -7.5e-4 -6.3e-4 l 7.6725,-21.16155 47.3626,-9.04151 c 2.87335,-0.54926 5.37587,-2.73168 6.30854,-5.50415 0.93153,-2.77098 0.25917,-6.02262 -1.69629,-8.19628 v -0.003 l -31.46909,-35.004083 15.9693,-43.861444 c 0.99472,-2.741766 0.407,-5.999616 -1.48595,-8.218321 -1.89334,-2.218801 -5.01766,-3.3154926 -7.88195,-2.764135 l -0.0138,0.004 L 90.570192,19.155796 75.941422,2.7640732 C 74.279807,0.9032622 71.740466,-0.12060482 69.2552,0.01136018 Z m 0.319958,5.21546002 c 0.132483,-0.0075 0.264417,-0.0067 0.395482,0.002 0.786417,0.05573 1.532893,0.414332 2.07149,1.017581 L 88.645777,24.853756 139.00386,15.07769 c 2.33824,-0.450109 4.27589,1.819712 3.46295,4.058245 l -17.0435,46.812977 33.57357,37.343348 c 1.59952,1.77552 0.64399,4.61763 -1.7028,5.06639 l -50.28709,9.59881 -8.682833,23.95877 c -0.79191,2.18094 -3.625453,2.72667 -5.171241,0.99594 l -16.859198,-18.86229 -50.088103,9.73757 c -2.336737,0.45677 -4.27959,-1.80662 -3.47459,-4.04742 L 39.538241,83.0062 5.9908463,45.547377 C 4.4010564,43.771906 5.3547146,40.940411 7.6946528,40.488718 L 58.318605,30.717634 66.86968,7.2334772 c 0.369978,-1.014037 1.246379,-1.758524 2.306672,-1.961054 0.132348,-0.02528 0.26511,-0.04195 0.39762,-0.04985 z"
       style="fill:#5027d5;stroke-width:3.97273;stroke-linecap:round;stroke-linejoin:round"
       id="path26" />
    <path
       style="opacity:0;fill:#ffffff;fill-opacity:0;stroke-width:0.496413"
       d="m 92.906334,142.13738 c -0.865344,-0.88684 -4.898649,-5.35483 -8.962932,-9.92783 -4.064282,-4.57321 -7.568226,-8.31515 -7.786512,-8.31515 -0.218336,0 -11.297323,2.12105 -24.62002,4.71438 -13.322705,2.5932 -24.94395,4.71506 -25.824983,4.7157 -1.1395,9.3e-4 -1.824962,-0.33858 -2.374449,-1.1773 -0.735857,-1.12276 -0.371247,-2.29344 7.679464,-24.65184 C 35.665509,94.58518 39.526383,83.74955 39.596624,83.41608 39.666864,83.08261 32.073241,74.25757 22.721891,63.804835 4.643083,43.596702 4.1868178,42.95087 6.8364096,41.320074 7.4507297,40.941984 19.234503,38.467785 33.02265,35.821902 c 13.788102,-2.645888 25.222098,-4.966516 25.408882,-5.15694 0.186783,-0.190397 2.147099,-5.341847 4.356213,-11.447612 2.20916,-6.10584 4.239527,-11.5178938 4.51191,-12.0268688 0.750968,-1.403205 2.285044,-2.068609 3.397046,-1.473474 0.764331,0.409052 15.375975,16.3593858 17.195937,18.7713778 0.423743,0.5616 4.94229,-0.183445 26.254012,-4.328736 23.98089,-4.664547 25.82255,-4.954503 26.91516,-4.238366 0.69276,0.4539 1.17342,1.255617 1.17342,1.957538 0,0.653803 -3.79759,11.600067 -8.43875,24.325029 -4.64165,12.724962 -8.43964,23.363807 -8.43964,23.641848 0,0.278034 5.98086,7.141942 13.29064,15.253122 19.10654,21.20207 20.96251,23.33714 20.96251,24.11524 0,0.38436 -0.39069,1.17437 -0.86827,1.75521 -0.75043,0.91172 -4.35713,1.71892 -26.39856,5.90747 l -25.5296,4.85151 -4.3897,12.11434 c -2.41429,6.66298 -4.754894,12.51815 -5.201354,13.01163 -1.196824,1.32244 -2.54644,1.098 -4.316172,-0.71684 z m -3.456838,-16.5057 -0.652911,-3.47505 -1.643406,0.16484 c -3.987792,0.40004 -4.014565,0.62163 -0.515211,4.26602 1.760844,1.83351 3.260699,3.15071 3.333008,2.92646 0.0719,-0.22388 -0.162385,-1.97089 -0.52148,-3.88227 z m 8.795034,-0.77321 c 1.72912,-4.66459 1.70371,-5.14053 -0.252748,-4.74957 -0.853176,0.17094 -1.85843,0.31048 -2.233874,0.31048 -0.424908,0 -0.682571,0.553 -0.682571,1.46475 0,2.08122 0.999706,6.47811 1.472877,6.47811 0.218794,0 0.982103,-1.57662 1.696316,-3.50377 z m -43.449157,-2.49165 c 22.797011,-4.43648 29.416414,-5.81106 29.793478,-6.18838 0.238887,-0.23862 -1.630906,-2.39692 -19.949104,-23.02675 -8.139105,-9.16615 -15.041639,-16.66572 -15.338983,-16.66572 -0.297361,0 -1.090637,1.45203 -1.762846,3.22675 -1.727986,4.56208 -16.997366,46.7687 -16.997366,46.98317 0,0.36487 1.636955,0.0714 24.254821,-4.32907 z M 125.6052,108.67451 c 13.65185,-2.63228 24.90488,-4.855 25.00691,-4.93906 0.10468,-0.0831 -0.42962,-0.88801 -1.18243,-1.78686 -1.50469,-1.79761 -29.68478,-33.059922 -33.01318,-36.624523 l -2.07895,-2.226336 -0.627,1.233493 c -0.70278,1.382402 -17.642393,48.810856 -17.642393,49.396056 0,0.57921 2.946413,0.0741 29.537043,-5.05277 z m -40.422821,-5.24233 c -1.330328,-6.95795 -0.81512,-6.27922 -8.605426,-11.3371 -3.88701,-2.52367 -7.569949,-4.91577 -8.184279,-5.3158 -0.614306,-0.4 -1.116951,-0.51933 -1.116951,-0.2652 0,0.92954 17.812217,20.72612 18.25248,20.28612 0.137655,-0.13788 -0.01799,-1.65325 -0.345824,-3.36802 z M 96.781956,93.48843 C 102.16082,78.19414 101.90819,79.1245 100.1443,81.10345 97.73423,83.80746 90.111217,95.44829 90.110114,96.42637 c -0.0013,1.67763 1.589524,9.59682 1.928499,9.59682 0.184296,0 2.318789,-5.6407 4.743343,-12.53476 z m -7.096033,-8.19098 c 8.781272,-12.51504 15.814337,-22.890371 15.814337,-23.329718 0,-0.259834 -3.85368,0.269784 -8.563331,1.17694 -26.591885,5.121903 -40.086062,7.879198 -40.086062,8.190868 0,0.19346 1.804975,1.61656 4.011074,3.16239 5.486903,3.84478 24.337997,16.13607 24.747823,16.13607 0.182462,0 2.01675,-2.40146 4.076159,-5.33655 z M 43.152609,73.91542 c 0.435228,-1.27728 0.79133,-2.50883 0.79133,-2.7368 0,-0.48481 -14.726278,-10.329939 -15.451474,-10.329939 -0.269666,0 -0.176798,0.447663 0.206427,0.994795 1.347474,1.923778 12.814437,14.394294 13.235888,14.394294 0.234599,0 0.782627,-1.04506 1.217829,-2.32235 z M 80.182713,60.294111 c 14.061117,-2.767415 25.752257,-5.201234 25.980517,-5.408516 0.22812,-0.207237 -0.87931,-1.910261 -2.46098,-3.784437 C 99.90902,46.606612 77.780387,21.778498 73.969165,17.74096 L 70.982374,14.576814 66.842018,25.92274 c -4.68873,12.848638 -13.180971,36.590273 -13.691353,38.276798 -0.263866,0.871832 -0.140082,1.117966 0.56414,1.121604 0.496193,0.0019 12.406759,-2.259622 26.467908,-5.027031 z M 51.704861,50.02365 c 2.284263,-6.363318 4.15318,-11.668834 4.15318,-11.790024 0,-0.121046 -0.42965,-0.220343 -0.954767,-0.220343 -1.427008,0 -36.377726,6.957045 -37.165529,7.397882 -0.462088,0.258613 3.184203,2.925982 11.398211,8.338175 6.642702,4.376847 13.194596,8.652436 14.559757,9.501301 l 2.482114,1.543382 0.686929,-1.600366 c 0.377828,-0.880176 2.555864,-6.806699 4.840105,-13.170007 z m 72.667439,2.013569 c 1.71223,-4.846317 3.2283,-9.121201 3.36937,-9.499766 0.77873,-2.096095 -1.46473,0.52286 -5.84539,6.823425 l -4.95653,7.127972 1.78655,2.179902 c 0.98227,1.198966 1.95403,2.179929 2.15883,2.179929 0.20543,0 1.77433,-3.96516 3.48717,-8.811462 z m -10.38896,-1.753076 c 5.50167,-7.682009 18.36141,-26.794846 18.16248,-26.993681 -0.14401,-0.143782 -8.60991,1.322928 -18.81342,3.259369 -10.20402,1.936375 -18.709374,3.520735 -18.901167,3.520735 -0.883749,0 -0.05715,1.233101 3.711716,5.538402 5.934561,6.778945 14.358331,15.810121 14.730321,15.79211 0.17696,-0.0096 0.67645,-0.511204 1.11007,-1.116935 z"
       id="path3" />
    <path
       style="opacity:0;fill:#ffffff;fill-opacity:0;stroke-width:0.496413"
       d="m 92.906334,142.13738 c -0.865344,-0.88684 -4.898649,-5.35483 -8.962932,-9.92783 -4.064282,-4.57321 -7.568226,-8.31515 -7.786512,-8.31515 -0.218336,0 -11.297323,2.12105 -24.62002,4.71438 -13.322705,2.5932 -24.94395,4.71506 -25.824983,4.7157 -1.1395,9.3e-4 -1.824962,-0.33858 -2.374449,-1.1773 -0.735857,-1.12276 -0.371247,-2.29344 7.679464,-24.65184 C 35.665509,94.58518 39.526383,83.74955 39.596624,83.41608 39.666864,83.08261 32.073241,74.25757 22.721891,63.804835 4.643083,43.596702 4.1868178,42.95087 6.8364096,41.320074 7.4507297,40.941984 19.234503,38.467785 33.02265,35.821902 c 13.788102,-2.645888 25.222098,-4.966516 25.408882,-5.15694 0.186783,-0.190397 2.147099,-5.341847 4.356213,-11.447612 2.20916,-6.10584 4.239527,-11.5178938 4.51191,-12.0268688 0.750968,-1.403205 2.285044,-2.068609 3.397046,-1.473474 0.764331,0.409052 15.375975,16.3593858 17.195937,18.7713778 0.423743,0.5616 4.94229,-0.183445 26.254012,-4.328736 23.98089,-4.664547 25.82255,-4.954503 26.91516,-4.238366 0.69276,0.4539 1.17342,1.255617 1.17342,1.957538 0,0.653803 -3.79759,11.600067 -8.43875,24.325029 -4.64165,12.724962 -8.43964,23.363807 -8.43964,23.641848 0,0.278034 5.98086,7.141942 13.29064,15.253122 19.10654,21.20207 20.96251,23.33714 20.96251,24.11524 0,0.38436 -0.39069,1.17437 -0.86827,1.75521 -0.75043,0.91172 -4.35713,1.71892 -26.39856,5.90747 l -25.5296,4.85151 -4.3897,12.11434 c -2.41429,6.66298 -4.754894,12.51815 -5.201354,13.01163 -1.196824,1.32244 -2.54644,1.098 -4.316172,-0.71684 z m -3.456838,-16.5057 -0.652911,-3.47505 -1.643406,0.16484 c -3.987792,0.40004 -4.014565,0.62163 -0.515211,4.26602 1.760844,1.83351 3.260699,3.15071 3.333008,2.92646 0.0719,-0.22388 -0.162385,-1.97089 -0.52148,-3.88227 z m 8.795034,-0.77321 c 1.72912,-4.66459 1.70371,-5.14053 -0.252748,-4.74957 -0.853176,0.17094 -1.85843,0.31048 -2.233874,0.31048 -0.424908,0 -0.682571,0.553 -0.682571,1.46475 0,2.08122 0.999706,6.47811 1.472877,6.47811 0.218794,0 0.982103,-1.57662 1.696316,-3.50377 z m -43.449157,-2.49165 c 22.797011,-4.43648 29.416414,-5.81106 29.793478,-6.18838 0.238887,-0.23862 -1.630906,-2.39692 -19.949104,-23.02675 -8.139105,-9.16615 -15.041639,-16.66572 -15.338983,-16.66572 -0.297361,0 -1.090637,1.45203 -1.762846,3.22675 -1.727986,4.56208 -16.997366,46.7687 -16.997366,46.98317 0,0.36487 1.636955,0.0714 24.254821,-4.32907 z M 125.6052,108.67451 c 13.65185,-2.63228 24.90488,-4.855 25.00691,-4.93906 0.10468,-0.0831 -0.42962,-0.88801 -1.18243,-1.78686 -1.50469,-1.79761 -29.68478,-33.059922 -33.01318,-36.624523 l -2.07895,-2.226336 -0.627,1.233493 c -0.70278,1.382402 -17.642393,48.810856 -17.642393,49.396056 0,0.57921 2.946413,0.0741 29.537043,-5.05277 z m -40.422821,-5.24233 c -1.330328,-6.95795 -0.81512,-6.27922 -8.605426,-11.3371 -3.88701,-2.52367 -7.569949,-4.91577 -8.184279,-5.3158 -0.614306,-0.4 -1.116951,-0.51933 -1.116951,-0.2652 0,0.92954 17.812217,20.72612 18.25248,20.28612 0.137655,-0.13788 -0.01799,-1.65325 -0.345824,-3.36802 z M 96.781956,93.48843 C 102.16082,78.19414 101.90819,79.1245 100.1443,81.10345 97.73423,83.80746 90.111217,95.44829 90.110114,96.42637 c -0.0013,1.67763 1.589524,9.59682 1.928499,9.59682 0.184296,0 2.318789,-5.6407 4.743343,-12.53476 z m -7.096033,-8.19098 c 8.781272,-12.51504 15.814337,-22.890371 15.814337,-23.329718 0,-0.259834 -3.85368,0.269784 -8.563331,1.17694 -26.591885,5.121903 -40.086062,7.879198 -40.086062,8.190868 0,0.19346 1.804975,1.61656 4.011074,3.16239 5.486903,3.84478 24.337997,16.13607 24.747823,16.13607 0.182462,0 2.01675,-2.40146 4.076159,-5.33655 z M 43.152609,73.91542 c 0.435228,-1.27728 0.79133,-2.50883 0.79133,-2.7368 0,-0.48481 -14.726278,-10.329939 -15.451474,-10.329939 -0.269666,0 -0.176798,0.447663 0.206427,0.994795 1.347474,1.923778 12.814437,14.394294 13.235888,14.394294 0.234599,0 0.782627,-1.04506 1.217829,-2.32235 z M 80.182713,60.294111 c 14.061117,-2.767415 25.752257,-5.201234 25.980517,-5.408516 0.22812,-0.207237 -0.87931,-1.910261 -2.46098,-3.784437 C 99.90902,46.606612 77.780387,21.778498 73.969165,17.74096 L 70.982374,14.576814 66.842018,25.92274 c -4.68873,12.848638 -13.180971,36.590273 -13.691353,38.276798 -0.263866,0.871832 -0.140082,1.117966 0.56414,1.121604 0.496193,0.0019 12.406759,-2.259622 26.467908,-5.027031 z M 51.704861,50.02365 c 2.284263,-6.363318 4.15318,-11.668834 4.15318,-11.790024 0,-0.121046 -0.42965,-0.220343 -0.954767,-0.220343 -1.427008,0 -36.377726,6.957045 -37.165529,7.397882 -0.462088,0.258613 3.184203,2.925982 11.398211,8.338175 6.642702,4.376847 13.194596,8.652436 14.559757,9.501301 l 2.482114,1.543382 0.686929,-1.600366 c 0.377828,-0.880176 2.555864,-6.806699 4.840105,-13.170007 z m 72.667439,2.013569 c 1.71223,-4.846317 3.2283,-9.121201 3.36937,-9.499766 0.77873,-2.096095 -1.46473,0.52286 -5.84539,6.823425 l -4.95653,7.127972 1.78655,2.179902 c 0.98227,1.198966 1.95403,2.179929 2.15883,2.179929 0.20543,0 1.77433,-3.96516 3.48717,-8.811462 z m -10.38896,-1.753076 c 5.50167,-7.682009 18.36141,-26.794846 18.16248,-26.993681 -0.14401,-0.143782 -8.60991,1.322928 -18.81342,3.259369 -10.20402,1.936375 -18.709374,3.520735 -18.901167,3.520735 -0.883749,0 -0.05715,1.233101 3.711716,5.538402 5.934561,6.778945 14.358331,15.810121 14.730321,15.79211 0.17696,-0.0096 0.67645,-0.511204 1.11007,-1.116935 z"
       id="path4" />
    <path
       style="opacity:0;fill:#ffffff;fill-opacity:0;stroke-width:0.496413"
       d="m 92.906334,142.13738 c -0.865344,-0.88684 -4.898649,-5.35483 -8.962932,-9.92783 -4.064282,-4.57321 -7.568226,-8.31515 -7.786512,-8.31515 -0.218336,0 -11.297323,2.12105 -24.62002,4.71438 -13.322705,2.5932 -24.94395,4.71506 -25.824983,4.7157 -1.1395,9.3e-4 -1.824962,-0.33858 -2.374449,-1.1773 -0.735857,-1.12276 -0.371247,-2.29344 7.679464,-24.65184 C 35.665509,94.58518 39.526383,83.74955 39.596624,83.41608 39.666864,83.08261 32.073241,74.25757 22.721891,63.804835 4.643083,43.596702 4.1868178,42.95087 6.8364096,41.320074 7.4507297,40.941984 19.234503,38.467785 33.02265,35.821902 c 13.788102,-2.645888 25.222098,-4.966516 25.408882,-5.15694 0.186783,-0.190397 2.147099,-5.341847 4.356213,-11.447612 2.20916,-6.10584 4.239527,-11.5178938 4.51191,-12.0268688 0.750968,-1.403205 2.285044,-2.068609 3.397046,-1.473474 0.764331,0.409052 15.375975,16.3593858 17.195937,18.7713778 0.423743,0.5616 4.94229,-0.183445 26.254012,-4.328736 23.98089,-4.664547 25.82255,-4.954503 26.91516,-4.238366 0.69276,0.4539 1.17342,1.255617 1.17342,1.957538 0,0.653803 -3.79759,11.600067 -8.43875,24.325029 -4.64165,12.724962 -8.43964,23.363807 -8.43964,23.641848 0,0.278034 5.98086,7.141942 13.29064,15.253122 19.10654,21.20207 20.96251,23.33714 20.96251,24.11524 0,0.38436 -0.39069,1.17437 -0.86827,1.75521 -0.75043,0.91172 -4.35713,1.71892 -26.39856,5.90747 l -25.5296,4.85151 -4.3897,12.11434 c -2.41429,6.66298 -4.754894,12.51815 -5.201354,13.01163 -1.196824,1.32244 -2.54644,1.098 -4.316172,-0.71684 z m -3.456838,-16.5057 -0.652911,-3.47505 -1.643406,0.16484 c -3.987792,0.40004 -4.014565,0.62163 -0.515211,4.26602 1.760844,1.83351 3.260699,3.15071 3.333008,2.92646 0.0719,-0.22388 -0.162385,-1.97089 -0.52148,-3.88227 z m 8.795034,-0.77321 c 1.72912,-4.66459 1.70371,-5.14053 -0.252748,-4.74957 -0.853176,0.17094 -1.85843,0.31048 -2.233874,0.31048 -0.424908,0 -0.682571,0.553 -0.682571,1.46475 0,2.08122 0.999706,6.47811 1.472877,6.47811 0.218794,0 0.982103,-1.57662 1.696316,-3.50377 z m -43.449157,-2.49165 c 22.797011,-4.43648 29.416414,-5.81106 29.793478,-6.18838 0.238887,-0.23862 -1.630906,-2.39692 -19.949104,-23.02675 -8.139105,-9.16615 -15.041639,-16.66572 -15.338983,-16.66572 -0.297361,0 -1.090637,1.45203 -1.762846,3.22675 -1.727986,4.56208 -16.997366,46.7687 -16.997366,46.98317 0,0.36487 1.636955,0.0714 24.254821,-4.32907 z M 125.6052,108.67451 c 13.65185,-2.63228 24.90488,-4.855 25.00691,-4.93906 0.10468,-0.0831 -0.42962,-0.88801 -1.18243,-1.78686 -1.50469,-1.79761 -29.68478,-33.059922 -33.01318,-36.624523 l -2.07895,-2.226336 -0.627,1.233493 c -0.70278,1.382402 -17.642393,48.810856 -17.642393,49.396056 0,0.57921 2.946413,0.0741 29.537043,-5.05277 z m -40.422821,-5.24233 c -1.330328,-6.95795 -0.81512,-6.27922 -8.605426,-11.3371 -3.88701,-2.52367 -7.569949,-4.91577 -8.184279,-5.3158 -0.614306,-0.4 -1.116951,-0.51933 -1.116951,-0.2652 0,0.92954 17.812217,20.72612 18.25248,20.28612 0.137655,-0.13788 -0.01799,-1.65325 -0.345824,-3.36802 z M 96.781956,93.48843 C 102.16082,78.19414 101.90819,79.1245 100.1443,81.10345 97.73423,83.80746 90.111217,95.44829 90.110114,96.42637 c -0.0013,1.67763 1.589524,9.59682 1.928499,9.59682 0.184296,0 2.318789,-5.6407 4.743343,-12.53476 z m -7.096033,-8.19098 c 8.781272,-12.51504 15.814337,-22.890371 15.814337,-23.329718 0,-0.259834 -3.85368,0.269784 -8.563331,1.17694 -26.591885,5.121903 -40.086062,7.879198 -40.086062,8.190868 0,0.19346 1.804975,1.61656 4.011074,3.16239 5.486903,3.84478 24.337997,16.13607 24.747823,16.13607 0.182462,0 2.01675,-2.40146 4.076159,-5.33655 z M 43.152609,73.91542 c 0.435228,-1.27728 0.79133,-2.50883 0.79133,-2.7368 0,-0.48481 -14.726278,-10.329939 -15.451474,-10.329939 -0.269666,0 -0.176798,0.447663 0.206427,0.994795 1.347474,1.923778 12.814437,14.394294 13.235888,14.394294 0.234599,0 0.782627,-1.04506 1.217829,-2.32235 z M 80.182713,60.294111 c 14.061117,-2.767415 25.752257,-5.201234 25.980517,-5.408516 0.22812,-0.207237 -0.87931,-1.910261 -2.46098,-3.784437 C 99.90902,46.606612 77.780387,21.778498 73.969165,17.74096 L 70.982374,14.576814 66.842018,25.92274 c -4.68873,12.848638 -13.180971,36.590273 -13.691353,38.276798 -0.263866,0.871832 -0.140082,1.117966 0.56414,1.121604 0.496193,0.0019 12.406759,-2.259622 26.467908,-5.027031 z M 51.704861,50.02365 c 2.284263,-6.363318 4.15318,-11.668834 4.15318,-11.790024 0,-0.121046 -0.42965,-0.220343 -0.954767,-0.220343 -1.427008,0 -36.377726,6.957045 -37.165529,7.397882 -0.462088,0.258613 3.184203,2.925982 11.398211,8.338175 6.642702,4.376847 13.194596,8.652436 14.559757,9.501301 l 2.482114,1.543382 0.686929,-1.600366 c 0.377828,-0.880176 2.555864,-6.806699 4.840105,-13.170007 z m 72.667439,2.013569 c 1.71223,-4.846317 3.2283,-9.121201 3.36937,-9.499766 0.77873,-2.096095 -1.46473,0.52286 -5.84539,6.823425 l -4.95653,7.127972 1.78655,2.179902 c 0.98227,1.198966 1.95403,2.179929 2.15883,2.179929 0.20543,0 1.77433,-3.96516 3.48717,-8.811462 z m -10.38896,-1.753076 c 5.50167,-7.682009 18.36141,-26.794846 18.16248,-26.993681 -0.14401,-0.143782 -8.60991,1.322928 -18.81342,3.259369 -10.20402,1.936375 -18.709374,3.520735 -18.901167,3.520735 -0.883749,0 -0.05715,1.233101 3.711716,5.538402 5.934561,6.778945 14.358331,15.810121 14.730321,15.79211 0.17696,-0.0096 0.67645,-0.511204 1.11007,-1.116935 z"
       id="path5" />
    <path
       style="opacity:0;fill:#ffffff;fill-opacity:0;stroke-width:0.496413"
       d="m 92.906334,142.13738 c -0.865344,-0.88684 -4.898649,-5.35483 -8.962932,-9.92783 -4.064282,-4.57321 -7.568226,-8.31515 -7.786512,-8.31515 -0.218336,0 -11.297323,2.12105 -24.62002,4.71438 -13.322705,2.5932 -24.94395,4.71506 -25.824983,4.7157 -1.1395,9.3e-4 -1.824962,-0.33858 -2.374449,-1.1773 -0.735857,-1.12276 -0.371247,-2.29344 7.679464,-24.65184 C 35.665509,94.58518 39.526383,83.74955 39.596624,83.41608 39.666864,83.08261 32.073241,74.25757 22.721891,63.804835 4.643083,43.596702 4.1868178,42.95087 6.8364096,41.320074 7.4507297,40.941984 19.234503,38.467785 33.02265,35.821902 c 13.788102,-2.645888 25.222098,-4.966516 25.408882,-5.15694 0.186783,-0.190397 2.147099,-5.341847 4.356213,-11.447612 2.20916,-6.10584 4.239527,-11.5178938 4.51191,-12.0268688 0.750968,-1.403205 2.285044,-2.068609 3.397046,-1.473474 0.764331,0.409052 15.375975,16.3593858 17.195937,18.7713778 0.423743,0.5616 4.94229,-0.183445 26.254012,-4.328736 23.98089,-4.664547 25.82255,-4.954503 26.91516,-4.238366 0.69276,0.4539 1.17342,1.255617 1.17342,1.957538 0,0.653803 -3.79759,11.600067 -8.43875,24.325029 -4.64165,12.724962 -8.43964,23.363807 -8.43964,23.641848 0,0.278034 5.98086,7.141942 13.29064,15.253122 19.10654,21.20207 20.96251,23.33714 20.96251,24.11524 0,0.38436 -0.39069,1.17437 -0.86827,1.75521 -0.75043,0.91172 -4.35713,1.71892 -26.39856,5.90747 l -25.5296,4.85151 -4.3897,12.11434 c -2.41429,6.66298 -4.754894,12.51815 -5.201354,13.01163 -1.196824,1.32244 -2.54644,1.098 -4.316172,-0.71684 z m -3.456838,-16.5057 -0.652911,-3.47505 -1.643406,0.16484 c -3.987792,0.40004 -4.014565,0.62163 -0.515211,4.26602 1.760844,1.83351 3.260699,3.15071 3.333008,2.92646 0.0719,-0.22388 -0.162385,-1.97089 -0.52148,-3.88227 z m 8.795034,-0.77321 c 1.72912,-4.66459 1.70371,-5.14053 -0.252748,-4.74957 -0.853176,0.17094 -1.85843,0.31048 -2.233874,0.31048 -0.424908,0 -0.682571,0.553 -0.682571,1.46475 0,2.08122 0.999706,6.47811 1.472877,6.47811 0.218794,0 0.982103,-1.57662 1.696316,-3.50377 z m -43.449157,-2.49165 c 22.797011,-4.43648 29.416414,-5.81106 29.793478,-6.18838 0.238887,-0.23862 -1.630906,-2.39692 -19.949104,-23.02675 -8.139105,-9.16615 -15.041639,-16.66572 -15.338983,-16.66572 -0.297361,0 -1.090637,1.45203 -1.762846,3.22675 -1.727986,4.56208 -16.997366,46.7687 -16.997366,46.98317 0,0.36487 1.636955,0.0714 24.254821,-4.32907 z M 125.6052,108.67451 c 13.65185,-2.63228 24.90488,-4.855 25.00691,-4.93906 0.10468,-0.0831 -0.42962,-0.88801 -1.18243,-1.78686 -1.50469,-1.79761 -29.68478,-33.059922 -33.01318,-36.624523 l -2.07895,-2.226336 -0.627,1.233493 c -0.70278,1.382402 -17.642393,48.810856 -17.642393,49.396056 0,0.57921 2.946413,0.0741 29.537043,-5.05277 z m -40.422821,-5.24233 c -1.330328,-6.95795 -0.81512,-6.27922 -8.605426,-11.3371 -3.88701,-2.52367 -7.569949,-4.91577 -8.184279,-5.3158 -0.614306,-0.4 -1.116951,-0.51933 -1.116951,-0.2652 0,0.92954 17.812217,20.72612 18.25248,20.28612 0.137655,-0.13788 -0.01799,-1.65325 -0.345824,-3.36802 z M 96.781956,93.48843 C 102.16082,78.19414 101.90819,79.1245 100.1443,81.10345 97.73423,83.80746 90.111217,95.44829 90.110114,96.42637 c -0.0013,1.67763 1.589524,9.59682 1.928499,9.59682 0.184296,0 2.318789,-5.6407 4.743343,-12.53476 z m -7.096033,-8.19098 c 8.781272,-12.51504 15.814337,-22.890371 15.814337,-23.329718 0,-0.259834 -3.85368,0.269784 -8.563331,1.17694 -26.591885,5.121903 -40.086062,7.879198 -40.086062,8.190868 0,0.19346 1.804975,1.61656 4.011074,3.16239 5.486903,3.84478 24.337997,16.13607 24.747823,16.13607 0.182462,0 2.01675,-2.40146 4.076159,-5.33655 z M 43.152609,73.91542 c 0.435228,-1.27728 0.79133,-2.50883 0.79133,-2.7368 0,-0.48481 -14.726278,-10.329939 -15.451474,-10.329939 -0.269666,0 -0.176798,0.447663 0.206427,0.994795 1.347474,1.923778 12.814437,14.394294 13.235888,14.394294 0.234599,0 0.782627,-1.04506 1.217829,-2.32235 z m 35.29262,-13.331925 c 12.832498,-2.581552 24.225371,-4.821386 25.317551,-4.977342 1.09203,-0.156 2.17219,-0.46673 2.40045,-0.690507 0.22812,-0.223759 -0.87931,-1.940312 -2.46098,-3.814488 C 99.90902,46.606612 77.780387,21.778498 73.969165,17.74096 L 70.982374,14.576814 66.842018,25.92274 c -4.68873,12.848638 -13.180971,36.590273 -13.691353,38.276798 -0.28361,0.937033 -0.152753,1.113779 0.812333,1.097353 0.632737,-0.01091 11.649708,-2.131799 24.482231,-4.713396 z M 51.704861,50.02365 c 2.284263,-6.363318 4.15318,-11.668834 4.15318,-11.790024 0,-0.121046 -0.42965,-0.220343 -0.954767,-0.220343 -1.427008,0 -36.377726,6.957045 -37.165529,7.397882 -0.462088,0.258613 3.184203,2.925982 11.398211,8.338175 6.642702,4.376847 13.194596,8.652436 14.559757,9.501301 l 2.482114,1.543382 0.686929,-1.600366 c 0.377828,-0.880176 2.555864,-6.806699 4.840105,-13.170007 z m 72.667439,2.013569 c 1.71223,-4.846317 3.2283,-9.121201 3.36937,-9.499766 0.77873,-2.096095 -1.46473,0.52286 -5.84539,6.823425 l -4.95653,7.127972 1.78655,2.179902 c 0.98227,1.198966 1.95403,2.179929 2.15883,2.179929 0.20543,0 1.77433,-3.96516 3.48717,-8.811462 z m -10.38896,-1.753076 c 5.50167,-7.682009 18.36141,-26.794846 18.16248,-26.993681 -0.14401,-0.143782 -8.60991,1.322928 -18.81342,3.259369 -10.20402,1.936375 -18.709374,3.520735 -18.901167,3.520735 -0.883749,0 -0.05715,1.233101 3.711716,5.538402 5.934561,6.778945 14.358331,15.810121 14.730321,15.79211 0.17696,-0.0096 0.67645,-0.511204 1.11007,-1.116935 z"
       id="path6" />
    <path
       style="opacity:0;fill:#ffffff;fill-opacity:0;stroke-width:0.124088"
       d="m 94.206608,143.57652 c -0.659172,-0.30752 -0.678551,-0.32829 -9.872433,-10.62253 -7.067097,-7.91287 -8.017189,-8.93087 -8.299959,-8.89485 -0.175626,0.0208 -11.516707,2.21849 -25.202452,4.88119 -18.976569,3.69133 -25.036447,4.82835 -25.529159,4.7896 -0.872824,-0.066 -1.717392,-0.60157 -2.205116,-1.3898 -0.332761,-0.53846 -0.375231,-0.71525 -0.372368,-1.54815 0.0024,-0.9296 0.10298,-1.21776 8.408135,-24.26372 4.622693,-12.82749 8.404942,-23.39177 8.404942,-23.47608 0,-0.084 -7.594929,-8.63298 -16.877595,-18.997042 C 13.377909,53.69108 5.684907,45.015947 5.5650566,44.777063 5.4186749,44.485267 5.347142,44.054321 5.347142,43.464183 c 0,-0.761177 0.050083,-0.95953 0.3755965,-1.485964 0.2308073,-0.373332 0.6063497,-0.750155 0.9741911,-0.977596 0.5586257,-0.345356 2.300868,-0.698619 26.0920474,-5.290289 14.021437,-2.706119 25.521691,-4.948382 25.556143,-4.98284 0.0345,-0.0345 1.989821,-5.354352 4.345267,-11.821995 2.355468,-6.467684 4.363298,-11.9152588 4.461772,-12.1057548 0.271437,-0.524842 1.122283,-1.192021 1.741256,-1.365317 0.698279,-0.195511 1.627281,-0.109433 2.246295,0.208091 0.33894,0.173857 2.94222,3.0045 8.870809,9.6455288 4.615103,5.16973 8.443967,9.452317 8.508568,9.516935 0.07378,0.07374 9.485243,-1.704122 25.365523,-4.792172 19.6156,-3.814377 25.40534,-4.899708 25.95236,-4.865063 1.45971,0.09298 2.58977,1.24668 2.68543,2.742604 0.0458,0.746892 -0.12749,1.244195 -8.53185,24.335199 -4.71924,12.96497 -8.56444,23.645738 -8.54484,23.735057 0.0185,0.08882 7.57487,8.542003 16.78952,18.783773 10.30495,11.45316 16.88608,18.86355 17.09569,19.2507 0.85664,1.57948 0.0276,3.63923 -1.68551,4.18935 -0.21629,0.0687 -11.70256,2.28334 -25.52472,4.92003 -13.82191,2.63663 -25.14169,4.80388 -25.15459,4.81624 -0.0127,0.0128 -1.98278,5.42923 -4.37762,12.03759 -2.39446,6.60904 -4.431602,12.16429 -4.526643,12.34576 -0.253233,0.4837 -0.934042,1.09631 -1.462185,1.31634 -0.631807,0.26363 -1.778292,0.24267 -2.393044,-0.0436 z m -4.436134,-14.81107 c -0.03541,-0.42676 -0.304626,-2.07439 -0.598288,-3.66117 -0.485017,-2.62136 -0.556627,-2.8857 -0.781357,-2.8857 -0.38566,0 -3.953525,0.75097 -4.203174,0.88452 -0.164992,0.086 -0.192727,0.17386 -0.106672,0.33098 0.375081,0.6845 5.375774,6.10699 5.632094,6.10699 0.07339,0 0.09651,-0.30721 0.05726,-0.77562 z m 7.158746,-1.14277 c 0.476441,-1.00734 2.67592,-7.08971 2.67592,-7.39986 0,-0.18788 -0.58675,-0.12795 -2.544093,0.26044 -1.023907,0.20318 -1.875575,0.36973 -1.892615,0.36992 -0.117076,9e-4 0.01112,1.7108 0.219872,2.93261 0.257802,1.50816 0.846887,4.25538 0.94801,4.42096 0.130179,0.2133 0.290047,0.0553 0.592906,-0.58407 z m -60.814015,-1.81044 c 23.052131,-4.4071 48.139873,-9.4158 48.383195,-9.65878 0.131838,-0.13187 -3.799224,-4.6188 -21.434238,-24.46458 C 52.441809,79.73493 49.326137,76.28458 49.19379,76.3287 c -0.166531,0.0551 -0.423909,0.69688 -2.453763,6.11431 -2.713477,7.24213 -15.734601,43.20697 -15.984679,44.15045 -0.03174,0.12 -0.01356,0.2174 0.03935,0.2174 0.05343,0 2.447587,-0.4497 5.319964,-0.99862 z m 64.172575,-12.47291 c 1.29695,-0.2302 6.51848,-1.22626 11.6036,-2.21381 5.0857,-0.98776 15.78049,-3.05854 23.76677,-4.60261 7.98616,-1.54378 14.62414,-2.84871 14.75186,-2.89961 0.23911,-0.0965 -0.69939,-1.15688 -21.25492,-24.03115 C 118.37119,67.592113 114.3783,63.331924 114.14632,63.579 c -0.1931,0.205443 -2.92742,7.81025 -13.65614,37.97629 -2.379084,6.68914 -4.298483,12.21012 -4.26541,12.26801 0.08407,0.14944 1.330083,9.1e-4 4.06301,-0.48397 z m -14.749754,-6.60262 c -0.03307,-0.11934 -0.09647,-0.49645 -0.140796,-0.8379 -0.228741,-1.75599 -1.686318,-8.62591 -1.89832,-8.94677 -0.08542,-0.12971 -12.509614,-8.28981 -14.888269,-9.77871 -0.630949,-0.39494 -1.207616,-0.69793 -1.281493,-0.67331 -0.181385,0.0607 2.660618,3.35107 10.055235,11.64231 4.68067,5.24819 7.951819,8.81155 8.089171,8.81155 0.06835,0 0.09751,-0.0998 0.06463,-0.21717 z m 8.918988,-7.22914 c 4.295021,-12.0144 6.924726,-19.61091 6.823806,-19.71193 -0.0328,-0.0325 -0.18528,0.0986 -0.33965,0.29074 -0.6588,0.81947 -5.298224,7.51909 -7.879633,11.37867 l -2.796992,4.18196 0.01692,0.7515 c 0.02695,1.17846 1.460385,9.06002 1.727445,9.49604 0.100921,0.16505 0.168868,-0.0113 2.448039,-6.38698 z M 86.947563,88.82642 c 4.494249,-6.27604 18.614817,-26.778877 18.614817,-27.028467 0,-0.132419 0.26128,-0.178562 -8.066943,1.423246 -17.427314,3.351803 -40.145974,7.822341 -40.511555,7.971721 -0.204679,0.0835 -0.097,0.20601 0.744621,0.84493 2.222222,1.68732 8.411482,5.84558 19.910043,13.37656 7.83649,5.13252 7.862931,5.1494 7.997856,5.11193 0.06461,-0.0179 0.654455,-0.78285 1.311161,-1.69992 z M 42.301423,75.46211 c 0.504125,-1.14196 1.320033,-3.44793 1.40228,-3.96328 0.08816,-0.5542 0.347173,-0.32497 -2.800376,-2.481426 -4.268515,-2.924424 -12.44815,-8.230767 -12.687629,-8.230767 -0.05693,0 -0.05076,0.09772 0.01473,0.21717 0.397598,0.729048 13.404996,15.171893 13.663953,15.171893 0.05085,0 0.234007,-0.32112 0.407272,-0.71359 z M 56.416498,64.755207 c 9.482538,-1.795329 49.444612,-9.741403 49.659732,-9.874418 0.19503,-0.120336 0.11158,-0.323249 -0.468,-1.13521 C 104.13429,51.68011 93.812826,39.991113 77.702997,22.143096 74.630063,18.738605 71.912065,15.722833 71.663015,15.441394 71.413943,15.159952 71.170589,14.96834 71.122151,15.01547 c -0.346453,0.337736 -18.0565,49.377024 -18.0565,49.998652 0,0.235536 0.195728,0.347942 0.496441,0.285135 0.10217,-0.02116 1.38689,-0.266217 2.854406,-0.54405 z M 48.84232,57.435809 c 3.281726,-9.042394 6.829576,-19.07724 6.829576,-19.317041 0,-0.117947 -0.864793,0.0091 -3.984506,0.580153 -11.523688,2.113647 -34.100436,6.641851 -34.347677,6.889078 -0.08732,0.08736 -0.891911,-0.465285 6.313635,4.342172 8.566132,5.715173 17.79456,11.718575 21.221364,13.805135 l 1.303115,0.793475 0.26251,-0.598979 c 0.144385,-0.329451 1.225275,-3.251742 2.401983,-6.493993 z m 72.72719,1.830525 c 2.27252,-6.057879 6.1374,-17.207844 6.00866,-17.335073 -0.0394,-0.0385 -0.20747,0.09705 -0.37379,0.301639 -1.02912,1.2686 -9.97608,14.104514 -9.97608,14.312704 0,0.228614 3.52819,4.11692 3.73556,4.11692 0.0447,0 0.31735,-0.628265 0.60565,-1.39619 z m -8.0887,-8.68738 c 0.69529,-0.944256 7.68053,-11.043366 12.08223,-17.467826 4.54419,-6.633904 6.55765,-9.63719 6.55765,-9.783337 0,-0.169428 -3.90117,0.544675 -22.58719,4.134162 -6.17719,1.18664 -11.873603,2.274816 -12.658641,2.418199 -2.445215,0.446664 -2.730307,0.51447 -2.730307,0.649376 0,0.426235 13.223468,15.259917 17.485788,19.615082 0.58465,0.597247 1.13195,1.085916 1.21639,1.085916 0.0843,0 0.37019,-0.293225 0.63408,-0.651572 z"
       id="path7" />
    <path
       style="opacity:0;fill:#ffffff;fill-opacity:1;stroke-width:0.25796"
       d="m 94.398286,143.5353 c -0.485779,-0.21171 -4.089319,-4.03091 -9.360743,-9.92197 -5.039686,-5.63221 -8.753291,-9.57655 -9.013608,-9.57261 -0.243484,0.002 -11.703506,2.19642 -25.466718,4.8738 -22.114433,4.30257 -25.126188,4.83432 -25.902916,4.57346 -1.107295,-0.37105 -1.874563,-1.38816 -1.899602,-2.51729 -0.01207,-0.53578 3.243874,-9.93969 8.421575,-24.32505 4.642482,-12.8982 8.391962,-23.5788 8.332198,-23.73452 C 39.448642,82.75547 31.786806,74.12795 22.482162,63.738888 9.0377727,48.727631 5.5306968,44.66904 5.3995254,43.969819 5.2068479,42.942756 5.7533872,41.688301 6.6492518,41.101304 6.9706919,40.890691 18.722724,38.499658 32.764953,35.787921 46.807117,33.076172 58.338078,30.815938 58.38926,30.765168 c 0.05108,-0.0508 2.048273,-5.468129 4.438003,-12.038603 3.702242,-10.1792008 4.461838,-12.0512108 5.135224,-12.6557318 0.856712,-0.769102 1.868963,-0.908472 2.966485,-0.408411 0.504349,0.229802 15.936665,17.1631178 17.307519,18.9908878 0.228505,0.304705 4.326195,-0.423995 25.669319,-4.564939 13.96903,-2.710174 25.60639,-4.926648 25.86241,-4.925513 1.30318,0.0045 2.76018,1.511456 2.76018,2.852266 0,0.304776 -3.72857,10.787989 -8.2853,23.296046 -4.55666,12.508075 -8.44163,23.179198 -8.6324,23.713615 l -0.34712,0.971653 15.01766,16.705352 c 8.25954,9.18795 15.97524,17.77602 17.14584,19.08458 2.01076,2.24731 2.12832,2.44459 2.12832,3.5621 0,0.95884 -0.14003,1.32344 -0.74102,1.92373 -0.40726,0.4077 -1.0165,0.80951 -1.35408,0.89321 -0.33712,0.0851 -11.80395,2.28874 -25.4811,4.90001 -13.67724,2.61147 -24.9517,4.84164 -25.05467,4.95623 -0.10324,0.11526 -2.13319,5.60695 -4.51235,12.20503 -2.37922,6.5975 -4.513577,12.21529 -4.743038,12.48309 -0.391139,0.45693 -1.831255,1.20217 -2.279216,1.18008 -0.111113,-0.004 -0.557227,-0.16482 -0.99164,-0.35455 z m -5.040353,-17.72872 c -0.393576,-2.25338 -0.711208,-3.42071 -0.956408,-3.51458 -0.356958,-0.1372 -4.129515,0.57672 -4.381747,0.82902 -0.19485,0.19498 1.051227,1.72509 3.499287,4.2974 1.228224,1.291 2.277023,2.2153 2.330629,2.05438 0.0534,-0.16104 -0.167647,-1.81089 -0.491761,-3.66622 z m 8.872279,-1.34374 c 1.722648,-4.71786 1.671728,-4.30202 0.522568,-4.27311 -0.54157,0.0139 -1.565256,0.15917 -2.274687,0.32313 -1.140808,0.26389 -1.299663,0.38299 -1.373989,1.03186 -0.07988,0.69639 0.897391,6.22745 1.187244,6.72167 0.246513,0.41972 0.776701,-0.62049 1.938864,-3.80355 z m -54.508887,-0.0485 c 15.78612,-3.041 39.940483,-7.85953 40.576409,-8.09476 0.55554,-0.20582 1.706907,1.17796 -10.645788,-12.79367 C 54.775259,82.17445 49.496543,76.30744 49.163601,76.30744 c -0.286986,0 -4.36435,10.96944 -13.233374,35.60177 -5.151653,14.30854 -5.377456,14.96329 -5.15733,14.96329 0.09872,0 5.925487,-1.10686 12.948428,-2.45961 z m 55.625346,-10.83642 c 3.800569,-0.65793 50.233009,-9.67072 50.840489,-9.86831 0.51418,-0.16718 0.2849,-0.49447 -2.5796,-3.67945 -1.72943,-1.92306 -8.67057,-9.64615 -15.42497,-17.16262 -13.80877,-15.36689 -17.75749,-19.578718 -18.0665,-19.269918 -0.11675,0.116874 -0.92361,2.182939 -1.79268,4.591186 -2.95973,8.200812 -16.232291,45.536452 -16.232291,45.661142 0,0.21258 0.879663,0.13877 3.255552,-0.27258 z m -14.7244,-12.11607 c -0.502979,-2.4047 -0.914492,-4.4083 -0.914492,-4.45243 0,-0.0826 -8.245973,-5.51475 -13.371188,-8.80763 -2.941762,-1.89007 -3.778176,-2.16899 -2.586624,-0.86259 0.354519,0.38871 2.374887,2.68036 4.489704,5.09252 2.114786,2.41216 5.937555,6.70481 8.495039,9.53906 4.02217,4.45742 4.660252,5.06611 4.726007,4.50805 0.04201,-0.35454 -0.335478,-2.61233 -0.838446,-5.01698 z m 9.551042,-0.94366 c 4.072418,-11.36602 7.094527,-20.1871 7.024287,-20.50345 -0.0861,-0.39201 -2.647711,3.15278 -7.628962,10.56025 l -3.462282,5.14862 0.175385,1.44988 c 0.208088,1.72025 1.083832,6.44341 1.462652,7.8883 0.34178,1.304 0.317284,1.34982 2.42892,-4.5436 z M 87.298846,88.49268 C 97.43683,74.02887 105.73462,61.872407 105.5773,61.714841 105.46921,61.607045 94.784603,63.64405 72.872379,67.949981 54.872832,71.48702 56.39763,71.11094 57.283058,71.79529 c 3.272997,2.52973 27.658286,18.66709 28.230601,18.68207 0.212844,0.004 1.016192,-0.88753 1.785187,-1.98468 z M 43.081671,73.64538 c 0.400955,-1.18093 0.653042,-2.34516 0.560194,-2.58716 -0.159583,-0.41579 -14.728101,-10.229921 -15.185798,-10.229921 -0.486205,0 -0.05123,0.570414 3.461858,4.540012 7.488437,8.461349 9.830187,10.925949 10.138402,10.670159 0.162983,-0.13521 0.62439,-1.21218 1.025344,-2.39309 z M 69.518549,62.253288 C 100.50769,56.171117 106.0168,55.021204 106.09439,54.619054 106.2083,54.028033 104.11982,51.568172 91.325489,37.222607 76.8729,21.017832 71.252116,14.876539 71.059332,15.079739 70.839751,15.311223 67.083966,25.5087 60.956103,42.51132 c -6.175511,17.134887 -7.948632,22.176861 -7.948632,22.602526 0,0.299573 0.177066,0.362054 0.709473,0.250387 0.390197,-0.08199 7.500921,-1.481774 15.801605,-3.110945 z M 48.155111,59.520954 c 3.151105,-8.558788 7.432217,-20.756418 7.432217,-21.175526 0,-0.364432 -0.396423,-0.339934 -3.547282,0.219252 -2.736778,0.485672 -31.17183,6.096149 -34.054108,6.719152 -0.319274,0.06874 -0.580479,0.226771 -0.580479,0.350595 0,0.544883 28.181263,18.914395 28.734377,18.730032 0.1455,-0.04852 1.052386,-2.228078 2.015275,-4.843505 z M 122.53932,56.80878 c 2.52147,-6.891804 5.02601,-14.213876 5.02601,-14.694963 0,-0.294758 -0.58932,0.319728 -1.50539,1.568902 -2.88143,3.930231 -8.81393,12.596248 -8.8112,12.870614 0.003,0.43954 3.3838,4.049051 3.69411,3.945663 0.15373,-0.05129 0.87242,-1.711973 1.59647,-3.690216 z m -7.15289,-8.815275 c 8.0623,-11.523234 16.90822,-24.573568 16.75877,-24.72317 -0.18067,-0.180527 -36.713522,6.675311 -37.70515,7.075832 -0.429369,0.173413 -0.189828,0.547849 1.932846,3.021217 6.136314,7.150152 16.046184,17.915466 16.492084,17.915466 0.12133,0 1.25594,-1.480203 2.52145,-3.289345 z"
       id="path9" />
    <path
       style="opacity:0;fill:#ffffff;fill-opacity:1;stroke-width:0.25796"
       d="m 94.398286,143.5353 c -0.485779,-0.21171 -4.089319,-4.03091 -9.360743,-9.92197 -5.039686,-5.63221 -8.753291,-9.57655 -9.013608,-9.57261 -0.243484,0.002 -11.703506,2.19642 -25.466718,4.8738 -22.114433,4.30257 -25.126188,4.83432 -25.902916,4.57346 -1.107295,-0.37105 -1.874563,-1.38816 -1.899602,-2.51729 -0.01207,-0.53578 3.243874,-9.93969 8.421575,-24.32505 4.642482,-12.8982 8.391962,-23.5788 8.332198,-23.73452 C 39.448642,82.75547 31.786806,74.12795 22.482162,63.738888 9.0377727,48.727631 5.5306968,44.66904 5.3995254,43.969819 5.2068479,42.942756 5.7533872,41.688301 6.6492518,41.101304 6.9706919,40.890691 18.722724,38.499658 32.764953,35.787921 46.807117,33.076172 58.338078,30.815938 58.38926,30.765168 c 0.05108,-0.0508 2.048273,-5.468129 4.438003,-12.038603 3.702242,-10.1792008 4.461838,-12.0512108 5.135224,-12.6557318 0.856712,-0.769102 1.868963,-0.908472 2.966485,-0.408411 0.504349,0.229802 15.936665,17.1631178 17.307519,18.9908878 0.228505,0.304705 4.326195,-0.423995 25.669319,-4.564939 13.96903,-2.710174 25.60639,-4.926648 25.86241,-4.925513 1.30318,0.0045 2.76018,1.511456 2.76018,2.852266 0,0.304776 -3.72857,10.787989 -8.2853,23.296046 -4.55666,12.508075 -8.44163,23.179198 -8.6324,23.713615 l -0.34712,0.971653 15.01766,16.705352 c 8.25954,9.18795 15.97524,17.77602 17.14584,19.08458 2.01076,2.24731 2.12832,2.44459 2.12832,3.5621 0,0.95884 -0.14003,1.32344 -0.74102,1.92373 -0.40726,0.4077 -1.0165,0.80951 -1.35408,0.89321 -0.33712,0.0851 -11.80395,2.28874 -25.4811,4.90001 -13.67724,2.61147 -24.9517,4.84164 -25.05467,4.95623 -0.10324,0.11526 -2.13319,5.60695 -4.51235,12.20503 -2.37922,6.5975 -4.513577,12.21529 -4.743038,12.48309 -0.391139,0.45693 -1.831255,1.20217 -2.279216,1.18008 -0.111113,-0.004 -0.557227,-0.16482 -0.99164,-0.35455 z m -5.040353,-17.72872 c -0.393576,-2.25338 -0.711208,-3.42071 -0.956408,-3.51458 -0.356958,-0.1372 -4.129515,0.57672 -4.381747,0.82902 -0.19485,0.19498 1.051227,1.72509 3.499287,4.2974 1.228224,1.291 2.277023,2.2153 2.330629,2.05438 0.0534,-0.16104 -0.167647,-1.81089 -0.491761,-3.66622 z m 8.872279,-1.34374 c 1.722648,-4.71786 1.671728,-4.30202 0.522568,-4.27311 -0.54157,0.0139 -1.565256,0.15917 -2.274687,0.32313 -1.140808,0.26389 -1.299663,0.38299 -1.373989,1.03186 -0.07988,0.69639 0.897391,6.22745 1.187244,6.72167 0.246513,0.41972 0.776701,-0.62049 1.938864,-3.80355 z m -54.508887,-0.0485 c 15.78612,-3.041 39.940483,-7.85953 40.576409,-8.09476 0.55554,-0.20582 1.706907,1.17796 -10.645788,-12.79367 C 54.775259,82.17445 49.496543,76.30744 49.163601,76.30744 c -0.286986,0 -4.36435,10.96944 -13.233374,35.60177 -5.151653,14.30854 -5.377456,14.96329 -5.15733,14.96329 0.09872,0 5.925487,-1.10686 12.948428,-2.45961 z m 55.625346,-10.83642 c 3.800569,-0.65793 50.233009,-9.67072 50.840489,-9.86831 0.51418,-0.16718 0.2849,-0.49447 -2.5796,-3.67945 -1.72943,-1.92306 -8.67057,-9.64615 -15.42497,-17.16262 -13.80877,-15.36689 -17.75749,-19.578718 -18.0665,-19.269918 -0.11675,0.116874 -0.92361,2.182939 -1.79268,4.591186 -2.95973,8.200812 -16.232291,45.536452 -16.232291,45.661142 0,0.21258 0.879663,0.13877 3.255552,-0.27258 z m -14.7244,-12.11607 c -0.502979,-2.4047 -0.914492,-4.4083 -0.914492,-4.45243 0,-0.0826 -8.245973,-5.51475 -13.371188,-8.80763 -2.941762,-1.89007 -3.778176,-2.16899 -2.586624,-0.86259 0.354519,0.38871 2.374887,2.68036 4.489704,5.09252 2.114786,2.41216 5.937555,6.70481 8.495039,9.53906 4.02217,4.45742 4.660252,5.06611 4.726007,4.50805 0.04201,-0.35454 -0.335478,-2.61233 -0.838446,-5.01698 z m 9.551042,-0.94366 c 4.072418,-11.36602 7.094527,-20.1871 7.024287,-20.50345 -0.0861,-0.39201 -2.647711,3.15278 -7.628962,10.56025 l -3.462282,5.14862 0.175385,1.44988 c 0.208088,1.72025 1.083832,6.44341 1.462652,7.8883 0.34178,1.304 0.317284,1.34982 2.42892,-4.5436 z M 87.298846,88.49268 C 97.43683,74.02887 105.73462,61.872407 105.5773,61.714841 105.46921,61.607045 94.784603,63.64405 72.872379,67.949981 54.872832,71.48702 56.39763,71.11094 57.283058,71.79529 c 3.272997,2.52973 27.658286,18.66709 28.230601,18.68207 0.212844,0.004 1.016192,-0.88753 1.785187,-1.98468 z M 43.081671,73.64538 c 0.400955,-1.18093 0.653042,-2.34516 0.560194,-2.58716 -0.159583,-0.41579 -14.728101,-10.229921 -15.185798,-10.229921 -0.486205,0 -0.05123,0.570414 3.461858,4.540012 7.488437,8.461349 9.830187,10.925949 10.138402,10.670159 0.162983,-0.13521 0.62439,-1.21218 1.025344,-2.39309 z M 69.518549,62.253288 C 100.50769,56.171117 106.0168,55.021204 106.09439,54.619054 106.2083,54.028033 104.11982,51.568172 91.325489,37.222607 76.8729,21.017832 71.252116,14.876539 71.059332,15.079739 70.839751,15.311223 67.083966,25.5087 60.956103,42.51132 c -6.175511,17.134887 -7.948632,22.176861 -7.948632,22.602526 0,0.299573 0.177066,0.362054 0.709473,0.250387 0.390197,-0.08199 7.500921,-1.481774 15.801605,-3.110945 z M 48.155111,59.520954 c 3.151105,-8.558788 7.432217,-20.756418 7.432217,-21.175526 0,-0.364432 -0.396423,-0.339934 -3.547282,0.219252 -2.736778,0.485672 -31.17183,6.096149 -34.054108,6.719152 -0.319274,0.06874 -0.580479,0.226771 -0.580479,0.350595 0,0.544883 28.181263,18.914395 28.734377,18.730032 0.1455,-0.04852 1.052386,-2.228078 2.015275,-4.843505 z M 122.53932,56.80878 c 2.52147,-6.891804 5.02601,-14.213876 5.02601,-14.694963 0,-0.294758 -0.58932,0.319728 -1.50539,1.568902 -2.88143,3.930231 -8.81393,12.596248 -8.8112,12.870614 0.003,0.43954 3.3838,4.049051 3.69411,3.945663 0.15373,-0.05129 0.87242,-1.711973 1.59647,-3.690216 z m -7.15289,-8.815275 c 8.0623,-11.523234 16.90822,-24.573568 16.75877,-24.72317 -0.18067,-0.180527 -36.713522,6.675311 -37.70515,7.075832 -0.429369,0.173413 -0.189828,0.547849 1.932846,3.021217 6.136314,7.150152 16.046184,17.915466 16.492084,17.915466 0.12133,0 1.25594,-1.480203 2.52145,-3.289345 z"
       id="path10" />
    <path
       style="opacity:0;fill:#ffffff;fill-opacity:1;stroke-width:0.25796"
       d="m 94.398286,143.5353 c -0.485779,-0.21171 -4.089319,-4.03091 -9.360743,-9.92197 -5.039686,-5.63221 -8.753291,-9.57655 -9.013608,-9.57261 -0.243484,0.002 -11.703506,2.19642 -25.466718,4.8738 -22.114433,4.30257 -25.126188,4.83432 -25.902916,4.57346 -1.107295,-0.37105 -1.874563,-1.38816 -1.899602,-2.51729 -0.01207,-0.53578 3.243874,-9.93969 8.421575,-24.32505 4.642482,-12.8982 8.391962,-23.5788 8.332198,-23.73452 C 39.448642,82.75547 31.786806,74.12795 22.482162,63.738888 9.0377727,48.727631 5.5306968,44.66904 5.3995254,43.969819 5.2068479,42.942756 5.7533872,41.688301 6.6492518,41.101304 6.9706919,40.890691 18.722724,38.499658 32.764953,35.787921 46.807117,33.076172 58.338078,30.815938 58.38926,30.765168 c 0.05108,-0.0508 2.048273,-5.468129 4.438003,-12.038603 3.702242,-10.1792008 4.461838,-12.0512108 5.135224,-12.6557318 0.856712,-0.769102 1.868963,-0.908472 2.966485,-0.408411 0.504349,0.229802 15.936665,17.1631178 17.307519,18.9908878 0.228505,0.304705 4.326195,-0.423995 25.669319,-4.564939 13.96903,-2.710174 25.60639,-4.926648 25.86241,-4.925513 1.30318,0.0045 2.76018,1.511456 2.76018,2.852266 0,0.304776 -3.72857,10.787989 -8.2853,23.296046 -4.55666,12.508075 -8.44163,23.179198 -8.6324,23.713615 l -0.34712,0.971653 15.01766,16.705352 c 8.25954,9.18795 15.97524,17.77602 17.14584,19.08458 2.01076,2.24731 2.12832,2.44459 2.12832,3.5621 0,0.95884 -0.14003,1.32344 -0.74102,1.92373 -0.40726,0.4077 -1.0165,0.80951 -1.35408,0.89321 -0.33712,0.0851 -11.80395,2.28874 -25.4811,4.90001 -13.67724,2.61147 -24.9517,4.84164 -25.05467,4.95623 -0.10324,0.11526 -2.13319,5.60695 -4.51235,12.20503 -2.37922,6.5975 -4.513577,12.21529 -4.743038,12.48309 -0.391139,0.45693 -1.831255,1.20217 -2.279216,1.18008 -0.111113,-0.004 -0.557227,-0.16482 -0.99164,-0.35455 z m -5.040353,-17.72872 c -0.393576,-2.25338 -0.711208,-3.42071 -0.956408,-3.51458 -0.356958,-0.1372 -4.129515,0.57672 -4.381747,0.82902 -0.19485,0.19498 1.051227,1.72509 3.499287,4.2974 1.228224,1.291 2.277023,2.2153 2.330629,2.05438 0.0534,-0.16104 -0.167647,-1.81089 -0.491761,-3.66622 z m 8.872279,-1.34374 c 1.722648,-4.71786 1.671728,-4.30202 0.522568,-4.27311 -0.54157,0.0139 -1.565256,0.15917 -2.274687,0.32313 -1.140808,0.26389 -1.299663,0.38299 -1.373989,1.03186 -0.07988,0.69639 0.897391,6.22745 1.187244,6.72167 0.246513,0.41972 0.776701,-0.62049 1.938864,-3.80355 z m -54.508887,-0.0485 c 15.78612,-3.041 39.940483,-7.85953 40.576409,-8.09476 0.55554,-0.20582 1.706907,1.17796 -10.645788,-12.79367 C 54.775259,82.17445 49.496543,76.30744 49.163601,76.30744 c -0.286986,0 -4.36435,10.96944 -13.233374,35.60177 -5.151653,14.30854 -5.377456,14.96329 -5.15733,14.96329 0.09872,0 5.925487,-1.10686 12.948428,-2.45961 z m 55.625346,-10.83642 c 3.800569,-0.65793 50.233009,-9.67072 50.840489,-9.86831 0.51418,-0.16718 0.2849,-0.49447 -2.5796,-3.67945 -1.72943,-1.92306 -8.67057,-9.64615 -15.42497,-17.16262 -13.80877,-15.36689 -17.75749,-19.578718 -18.0665,-19.269918 -0.11675,0.116874 -0.92361,2.182939 -1.79268,4.591186 -2.95973,8.200812 -16.232291,45.536452 -16.232291,45.661142 0,0.21258 0.879663,0.13877 3.255552,-0.27258 z m -14.7244,-12.11607 c -0.502979,-2.4047 -0.914492,-4.4083 -0.914492,-4.45243 0,-0.0826 -8.245973,-5.51475 -13.371188,-8.80763 -2.941762,-1.89007 -3.778176,-2.16899 -2.586624,-0.86259 0.354519,0.38871 2.374887,2.68036 4.489704,5.09252 2.114786,2.41216 5.937555,6.70481 8.495039,9.53906 4.02217,4.45742 4.660252,5.06611 4.726007,4.50805 0.04201,-0.35454 -0.335478,-2.61233 -0.838446,-5.01698 z m 9.551042,-0.94366 c 4.072418,-11.36602 7.094527,-20.1871 7.024287,-20.50345 -0.0861,-0.39201 -2.647711,3.15278 -7.628962,10.56025 l -3.462282,5.14862 0.175385,1.44988 c 0.208088,1.72025 1.083832,6.44341 1.462652,7.8883 0.34178,1.304 0.317284,1.34982 2.42892,-4.5436 z M 87.298846,88.49268 C 97.43683,74.02887 105.73462,61.872407 105.5773,61.714841 105.46921,61.607045 94.784603,63.64405 72.872379,67.949981 54.872832,71.48702 56.39763,71.11094 57.283058,71.79529 c 3.272997,2.52973 27.658286,18.66709 28.230601,18.68207 0.212844,0.004 1.016192,-0.88753 1.785187,-1.98468 z M 43.081671,73.64538 c 0.400955,-1.18093 0.653042,-2.34516 0.560194,-2.58716 -0.159583,-0.41579 -14.728101,-10.229921 -15.185798,-10.229921 -0.486205,0 -0.05123,0.570414 3.461858,4.540012 7.488437,8.461349 9.830187,10.925949 10.138402,10.670159 0.162983,-0.13521 0.62439,-1.21218 1.025344,-2.39309 z M 69.518549,62.253288 C 100.50769,56.171117 106.0168,55.021204 106.09439,54.619054 106.2083,54.028033 104.11982,51.568172 91.325489,37.222607 76.8729,21.017832 71.252116,14.876539 71.059332,15.079739 70.839751,15.311223 67.083966,25.5087 60.956103,42.51132 c -6.175511,17.134887 -7.948632,22.176861 -7.948632,22.602526 0,0.299573 0.177066,0.362054 0.709473,0.250387 0.390197,-0.08199 7.500921,-1.481774 15.801605,-3.110945 z M 48.155111,59.520954 c 3.151105,-8.558788 7.432217,-20.756418 7.432217,-21.175526 0,-0.364432 -0.396423,-0.339934 -3.547282,0.219252 -2.736778,0.485672 -31.17183,6.096149 -34.054108,6.719152 -0.319274,0.06874 -0.580479,0.226771 -0.580479,0.350595 0,0.544883 28.181263,18.914395 28.734377,18.730032 0.1455,-0.04852 1.052386,-2.228078 2.015275,-4.843505 z M 122.53932,56.80878 c 2.52147,-6.891804 5.02601,-14.213876 5.02601,-14.694963 0,-0.294758 -0.58932,0.319728 -1.50539,1.568902 -2.88143,3.930231 -8.81393,12.596248 -8.8112,12.870614 0.003,0.43954 3.3838,4.049051 3.69411,3.945663 0.15373,-0.05129 0.87242,-1.711973 1.59647,-3.690216 z m -7.15289,-8.815275 c 8.0623,-11.523234 16.90822,-24.573568 16.75877,-24.72317 -0.18067,-0.180527 -36.713522,6.675311 -37.70515,7.075832 -0.429369,0.173413 -0.189828,0.547849 1.932846,3.021217 6.136314,7.150152 16.046184,17.915466 16.492084,17.915466 0.12133,0 1.25594,-1.480203 2.52145,-3.289345 z"
       id="path11" />
    <path
       d="m 69.733597,5.3693382 c -0.639818,-0.01366 -1.235368,0.220499 -1.770782,0.70119 -0.67339,0.604518 -1.433406,2.477135 -5.135661,12.6563638 -2.389736,6.57044 -4.386842,11.987715 -4.438016,12.038514 -0.05114,0.05089 -11.581916,2.310591 -25.624065,5.022345 -14.04223,2.711707 -25.7943521,5.103159 -26.1157892,5.313761 -0.895868,0.587025 -1.4425638,1.84115 -1.2498863,2.868196 0.1311855,0.699215 3.6385837,4.75819 17.0829545,19.769439 9.304654,10.389043 16.96614,19.016583 17.025966,19.172263 0.06016,0.1557 -3.68985,10.8359 -8.332325,23.7341 -5.177694,14.38539 -8.433287,23.78959 -8.421421,24.32534 0.02503,1.12918 0.792451,2.14625 1.899748,2.51722 0.776749,0.26086 3.78826,-0.27045 25.902726,-4.57331 13.763197,-2.67741 25.22309,-4.87057 25.466585,-4.87379 0.260324,-0.002 3.973889,3.94004 9.013586,9.57207 5.271398,5.89124 8.875508,9.71091 9.361313,9.92288 0.43441,0.18938 0.880227,0.34759 0.991222,0.3535 0.447935,0.0214 1.888439,-0.72243 2.279576,-1.17957 0.229421,-0.26781 2.363812,-5.88509 4.743032,-12.4829 2.37917,-6.59801 4.40938,-12.09051 4.512,-12.20538 0.10334,-0.11521 11.37773,-2.34468 25.05496,-4.95614 13.67715,-2.61128 25.14346,-4.8159 25.48052,-4.89982 0.33754,-0.0838 0.94727,-0.48608 1.35451,-0.89369 0.60101,-0.60037 0.7415,-0.96431 0.7415,-1.92306 0,-1.11754 -0.11915,-1.31498 -2.12855,-3.56227 -1.17079,-1.30858 -8.88671,-9.89673 -17.14624,-19.08469 l -15.01722,-16.705268 0.34719,-0.971975 c 0.19054,-0.534426 4.07525,-11.205555 8.63198,-23.713638 4.55674,-12.508062 8.28528,-22.991269 8.28528,-23.296047 0,-1.340811 -1.45728,-2.846846 -2.76021,-2.852516 -0.25601,-9.6e-4 -11.89353,2.216031 -25.86258,4.926167 C 92.562334,24.229608 88.465269,24.958173 88.23674,24.65352 86.865897,22.825699 71.433676,5.8920142 70.929303,5.6622132 70.517754,5.4746912 70.117478,5.3775302 69.733597,5.3693382 Z m 1.325411,9.7104568 c 0.192772,-0.203167 5.814246,5.938311 20.266818,22.143101 12.794274,14.34557 14.882304,16.805468 14.768474,17.396503 -0.0778,0.402156 -5.58676,1.551813 -36.575913,7.634002 -8.30069,1.629152 -15.411522,3.029299 -15.80171,3.111161 -0.532415,0.11172 -0.709053,0.04884 -0.709053,-0.250826 0,-0.425675 1.772739,-5.467805 7.948267,-22.602702 6.127847,-17.00261 9.883552,-27.199752 10.103117,-27.431239 z m 61.086342,8.190546 c 0.14962,0.149604 -8.69674,13.200157 -16.75905,24.723362 -1.26564,1.809148 -2.39983,3.289341 -2.52109,3.289341 -0.44605,0 -10.35575,-10.765829 -16.492072,-17.915987 -2.122671,-2.473365 -2.362648,-2.847261 -1.93329,-3.020677 0.991627,-0.400522 37.524972,-7.256566 37.705502,-7.076039 z M 55.295794,38.107207 c 0.235838,0.01954 0.29143,0.101363 0.29143,0.238039 0,0.419105 -4.281245,12.616535 -7.432325,21.175344 -0.962928,2.615415 -1.869695,4.795716 -2.015215,4.844207 -0.55309,0.184368 -28.734536,-18.18556 -28.734536,-18.730475 0,-0.123852 0.261499,-0.281561 0.580771,-0.350575 2.882256,-0.623037 31.317253,-6.23336 34.05402,-6.719033 1.969303,-0.349496 2.862762,-0.49014 3.255855,-0.457507 z m 72.218896,3.933527 c 0.0323,-0.0012 0.0487,0.02241 0.0487,0.07323 0,0.481109 -2.50484,7.802539 -5.02638,14.694349 -0.72397,1.978225 -1.44235,3.63913 -1.59618,3.690485 -0.31031,0.103244 -3.68985,-3.506075 -3.69422,-3.945603 -0.002,-0.274358 5.92967,-8.94061 8.81124,-12.870828 0.75842,-1.03447 1.29337,-1.633773 1.45488,-1.641823 z M 28.456008,60.828219 c 0.457684,0 15.026456,9.814161 15.18604,10.229961 0.09326,0.24199 -0.159149,1.40648 -0.560102,2.58742 -0.400959,1.18092 -0.862393,2.25759 -1.025415,2.39286 C 41.748316,76.29425 39.4062,73.82947 31.917761,65.36813 28.404608,61.398499 27.969756,60.828219 28.456008,60.828219 Z M 105.5771,61.714658 C 105.73442,61.872232 97.436947,74.02861 87.298951,88.49244 86.529963,89.58958 85.726781,90.48259 85.513936,90.477 84.941585,90.462 60.556172,74.32472 57.283174,71.79499 56.39774,71.11062 54.873015,71.48689 72.872537,67.94984 94.784772,63.643919 105.46911,61.606833 105.5771,61.714658 Z m 8.53863,1.881972 c 0.3091,-0.308817 4.2578,3.903323 18.06661,19.26989 6.75396,7.51648 13.69597,15.23924 15.42541,17.16211 2.86459,3.18481 3.09359,3.51258 2.5794,3.67964 -0.60747,0.1976 -47.03976,9.2102 -50.840349,9.86806 -2.375863,0.41132 -3.255847,0.48549 -3.255847,0.273 0,-0.12492 13.273046,-37.46067 16.232986,-45.661482 0.86882,-2.408246 1.67496,-4.474338 1.79179,-4.591218 z M 49.163923,76.30712 c 0.332919,0 5.61153,5.86765 24.488209,27.21801 12.3527,13.97165 11.200943,12.58776 10.6454,12.79356 -0.635914,0.23497 -24.79027,5.05344 -40.576378,8.09398 -7.022944,1.35277 -12.84982,2.45982 -12.948522,2.45982 -0.220088,0 0.0048,-0.65461 5.157746,-14.96315 8.869024,-24.63232 12.946565,-35.60222 13.233545,-35.60222 z m 52.033397,3.70762 c 0.0706,0.31637 -2.951559,9.13735 -7.023971,20.50337 -2.111642,5.89345 -2.08743,5.84725 -2.429241,4.54331 -0.378785,-1.44483 -1.25415,-6.16797 -1.462227,-7.8882 l -0.175301,-1.44944 3.46176,-5.14915 c 4.981272,-7.40746 7.54206,-10.95191 7.62898,-10.55989 z m -33.890112,6.51879 c 0.278432,-0.01 1.282568,0.54593 3.029233,1.66818 5.125214,3.29288 13.371064,8.72454 13.371064,8.8076 0,0.0447 0.412013,2.04759 0.914968,4.45232 0.502956,2.4047 0.879852,4.66266 0.838011,5.01717 -0.06595,0.55805 -0.703737,-0.0504 -4.725902,-4.50835 -2.557487,-2.83429 -6.380027,-7.12666 -8.494796,-9.53882 -2.114813,-2.41216 -4.135498,-4.70417 -4.490056,-5.09287 -0.484058,-0.53073 -0.633017,-0.79953 -0.442522,-0.80523 z"
       style="opacity:0;fill:#ffffff;stroke-width:0.975088"
       id="path13"
       inkscape:label="path13" />
  </g>
</svg>
