<?xml version="1.0" encoding="UTF-8" standalone="no"?>
<!-- Created with Inkscape (http://www.inkscape.org/) -->

<svg
   width="685mm"
   height="100mm"
   viewBox="0 0 113.025 90.30303"
   version="1.1"
   id="svg1"
   sodipodi:docname="wordmark.svg"
   inkscape:version="1.4.3 (0d15f75042, 2025-12-25)"
   xmlns:inkscape="http://www.inkscape.org/namespaces/inkscape"
   xmlns:sodipodi="http://sodipodi.sourceforge.net/DTD/sodipodi-0.dtd"
   xmlns="http://www.w3.org/2000/svg"
   xmlns:svg="http://www.w3.org/2000/svg">
  <sodipodi:namedview
     id="namedview1"
     pagecolor="#ffffff"
     bordercolor="#000000"
     borderopacity="0.25"
     inkscape:showpageshadow="2"
     inkscape:pageopacity="0.0"
     inkscape:pagecheckerboard="0"
     inkscape:deskcolor="#d1d1d1"
     inkscape:document-units="mm"
     inkscape:zoom="0.60097248"
     inkscape:cx="589.04528"
     inkscape:cy="435.12808"
     inkscape:window-width="3440"
     inkscape:window-height="1368"
     inkscape:window-x="0"
     inkscape:window-y="0"
     inkscape:window-maximized="1"
     inkscape:current-layer="layer1" />
  <defs
     id="defs1" />
  <g
     inkscape:label="Layer 1"
     inkscape:groupmode="layer"
     id="layer1">
    <g
       inkscape:groupmode="layer"
       id="layer2"
       inkscape:label="Layer 2"
       transform="matrix(1.3789464,0,0,1.3789464,-31.7568,-39.673101)">
      <path
         style="opacity:1;fill:#ffffff;fill-opacity:1;fill-rule:nonzero;stroke:#ffffff;stroke-width:1.24012;stroke-dasharray:none;stroke-opacity:1"
         d="m -96.994819,87.875407 c -0.19344,-0.08425 -1.628363,-1.605237 -3.727411,-3.951025 -2.00806,-2.244104 -3.48545,-3.813095 -3.58917,-3.811711 -0.097,8.92e-4 -4.66,0.874778 -10.14009,1.941065 -8.8132,1.714838 -10.0043,1.925134 -10.31442,1.821084 -0.44169,-0.148185 -0.7472,-0.55306 -0.75665,-1.002739 -0.004,-0.212438 1.29963,-3.979461 3.35328,-9.686345 1.84832,-5.136294 3.34116,-9.389259 3.31744,-9.451039 -0.0237,-0.06176 -3.07458,-3.497044 -6.77964,-7.633919 -5.35349,-5.977402 -6.74999,-7.593519 -6.80222,-7.871945 -0.0768,-0.408965 0.14091,-0.908492 0.49763,-1.14223 0.128,-0.08387 4.80762,-1.035959 10.39914,-2.115763 5.59154,-1.079801 10.1831,-1.97982 10.20348,-2.00004 0.0203,-0.02022 0.81562,-2.177387 1.7672,-4.793708 1.47422,-4.053309 1.77668,-4.798735 2.04482,-5.039451 0.34168,-0.306748 0.74427,-0.361725 1.18346,-0.161615 0.20238,0.09221 6.340308,6.828346 6.889538,7.561004 0.091,0.121416 1.720593,-0.168368 10.221513,-1.817679 5.56227,-1.079167 10.19641,-1.961762 10.29809,-1.961323 0.51891,0.0022 1.09923,0.601861 1.09923,1.135781 0,0.121345 -1.48463,4.295709 -3.29918,9.276364 -1.81455,4.980654 -3.36157,9.230305 -3.43781,9.443666 l -0.13862,0.387933 5.51814,6.135337 c 9.16728,10.192627 8.13756,8.986571 8.13756,9.531125 0,0.383169 -0.0557,0.528034 -0.29502,0.767364 -0.16226,0.162269 -0.40496,0.322307 -0.53932,0.355643 -0.13437,0.03338 -4.70029,0.911354 -10.14651,1.951133 -5.44621,1.03978 -9.93566,1.927866 -9.97653,1.973527 -0.0409,0.0457 -0.84947,2.232626 -1.79687,4.859907 -0.94739,2.62729 -1.79728,4.864164 -1.88863,4.970838 -0.15573,0.181861 -0.7292,0.478687 -0.90757,0.469762 -0.0442,-0.0018 -0.22188,-0.06569 -0.39486,-0.141001 z m -2.003203,-7.060018 c -0.15816,-0.914201 -0.27945,-1.358704 -0.38139,-1.397823 -0.14448,-0.05543 -1.646328,0.227057 -1.748088,0.328814 -0.0776,0.07756 0.41861,0.687009 1.393398,1.711348 0.48908,0.513932 0.90695,0.881258 0.92861,0.816274 0.0217,-0.06498 -0.065,-0.721363 -0.19253,-1.458613 z m 3.529073,-0.534532 c 0.68593,-1.878651 0.66568,-1.713115 0.20808,-1.701602 -0.21568,0.0054 -0.62329,0.06328 -0.90579,0.128604 -0.45425,0.105023 -0.51751,0.15255 -0.54712,0.411042 -0.0318,0.27711 0.35733,2.479578 0.47278,2.676325 0.0981,0.167259 0.30928,-0.24688 0.77205,-1.514369 z m -21.705201,-0.0199 c 6.28596,-1.21084 15.90411,-3.129574 16.15733,-3.223245 0.22122,-0.08184 0.67969,0.469119 -4.2391,-5.094283 -7.5166,-8.501664 -9.61856,-10.837876 -9.75113,-10.837876 -0.11394,0 -1.53901,3.834908 -5.26809,14.17656 -2.03643,5.647495 -2.14361,5.958262 -2.05501,5.958262 0.0393,0 2.3595,-0.440736 5.156,-0.979418 z m 22.149731,-4.315004 c 1.5239,-0.263892 20.00365,-3.850572 20.24452,-3.929185 0.20474,-0.06685 0.11368,-0.196748 -1.02728,-1.465468 -0.68858,-0.765676 -3.45253,-3.840968 -6.14212,-6.833987 -5.49115,-6.110633 -7.07099,-7.796009 -7.19326,-7.67374 -0.0461,0.04618 -0.36684,0.868867 -0.71258,1.828195 -1.27518,3.53826 -6.46562,18.134903 -6.46562,18.182733 0,0.08461 0.3503,0.05525 1.29634,-0.108548 z m -5.863171,-4.824108 c -0.20028,-0.957542 -0.36414,-1.75535 -0.36414,-1.772924 0,-0.03311 -3.28351,-2.195952 -5.32434,-3.507164 -1.1714,-0.752611 -1.50446,-0.863676 -1.02999,-0.343479 0.14118,0.15479 0.94568,1.067305 1.78778,2.027819 0.8421,0.960514 2.36431,2.669792 3.38269,3.798386 1.6016,1.774958 1.85568,2.017332 1.88187,1.795165 0.0167,-0.141259 -0.13359,-1.04027 -0.33387,-1.997803 z m 3.803171,-0.375752 c 1.62164,-4.525898 2.82501,-8.0384 2.79708,-8.16438 -0.0346,-0.156093 -1.05434,1.25543 -3.03784,4.205037 l -1.378673,2.050176 0.0698,0.577328 c 0.0828,0.684984 0.43158,2.565733 0.58242,3.141142 0.136103,0.519198 0.126343,0.53745 0.967183,-1.809303 z m -2.061373,-5.755927 c 4.260303,-6.101137 6.665923,-9.631728 6.604553,-9.693097 -0.0803,-0.08033 -19.241741,3.669868 -19.361151,3.789278 -0.0382,0.0382 0.0196,0.137841 0.12847,0.221381 1.37622,1.05597 11.00727,7.431343 11.24129,7.441286 0.0869,0.0036 0.691298,-0.762776 1.386838,-1.758848 z m -18.283058,-4.944625 c 0.15967,-0.470243 0.26002,-0.933873 0.22303,-1.030283 -0.06,-0.156236 -5.57574,-3.881725 -5.97255,-4.033991 -0.43051,-0.165207 -0.16696,0.154883 3.158,3.835333 1.45908,1.615081 2.09698,2.25344 2.18161,2.183198 0.0658,-0.05462 0.25026,-0.484023 0.40991,-0.954257 z m 10.27022,-4.485344 c 12.238381,-2.39972 14.790541,-2.931955 14.821141,-3.090855 0.0453,-0.235335 -0.78628,-1.214879 -5.880913,-6.927177 -5.754948,-6.452661 -7.993108,-8.898091 -8.069878,-8.81718 -0.0875,0.09216 -1.58298,4.152756 -4.02306,10.923117 -2.69936,7.489784 -3.17563,8.864517 -3.12067,9.007738 0.033,0.08622 0.14361,0.11942 0.28718,0.08627 0.12837,-0.02964 2.82215,-0.5615 5.9862,-1.181911 z m -8.24999,-1.13894 c 1.25474,-3.40807 2.95947,-8.265103 2.95947,-8.431989 0,-0.145122 -0.15786,-0.135365 -1.41253,0.0873 -1.08977,0.193398 -12.41246,2.427467 -13.56018,2.675545 -0.12712,0.02748 -0.23114,0.0903 -0.23114,0.139598 0,0.216975 11.22164,7.531623 11.44188,7.45821 0.0579,-0.01931 0.41907,-0.887211 0.8025,-1.92866 z m 29.619321,-1.079975 c 1.00418,-2.744283 2.00144,-5.65989 2.00144,-5.851472 0,-0.11736 -0.23477,0.12733 -0.59943,0.624741 -1.14731,1.564995 -3.50971,5.015768 -3.50858,5.125016 0.002,0.175022 1.3474,1.612312 1.4709,1.571143 0.0614,-0.02046 0.34742,-0.681699 0.63567,-1.469428 z m -2.3845,-4.17793 c 3.6525,-5.250361 6.26919,-9.117276 6.20978,-9.176695 -0.072,-0.07207 -14.61838,2.65747 -15.01418,2.817333 -0.17097,0.06905 -0.0756,0.218158 0.76965,1.203042 2.45794,2.86408 6.38982,7.133845 6.56929,7.133845 0.0494,0 0.70883,-0.889886 1.46546,-1.977525 z"
         id="path48" />
    </g>
    <path
       d="m -168.05784,70.282727 -3.8e-4,4.55e-4 c -0.26274,-0.0054 -2.36938,0.434873 -2.45684,0.52234 -0.0378,0.03624 0.63897,0.8506 1.5029,1.80542 0.86386,0.954472 1.60493,1.700353 1.64648,1.658877 0.042,-0.04115 -0.0917,-0.938951 -0.29578,-1.996241 -0.20407,-1.057514 -0.36976,-1.949955 -0.36976,-1.982131 0,0 -4.1e-4,-4.64e-4 -4.1e-4,-4.64e-4 0,0 0,-3.21e-4 0,-3.21e-4 0,0 0,-4.55e-4 0,-4.55e-4 0,0 -3.7e-4,-3.66e-4 -3.7e-4,-3.66e-4 0,0 0,-4.56e-4 0,-4.56e-4 0,0 -3.9e-4,-3.12e-4 -3.9e-4,-3.12e-4 0,0 -4e-4,-5e-4 -4e-4,-5e-4 0,0 -3.9e-4,-3.84e-4 -3.9e-4,-3.84e-4 -0.003,-0.0018 -0.012,-0.0036 -0.0248,-0.0045 z"
       style="fill:#5027d5;stroke-width:2.18139;stroke-linecap:round;stroke-linejoin:round"
       id="path38" />
    <path
       d="m -162.0388,69.127563 c -0.23838,-0.01009 -1.9032,0.291774 -2.32108,0.426063 -0.18413,0.05962 0.0715,1.754609 0.58222,3.879704 0.0862,0.358579 0.28133,-0.02758 0.95784,-1.893709 0.46785,-1.289819 0.83263,-2.371886 0.80992,-2.405346 0,0 0,-4.29e-4 0,-4.29e-4 0,0 -3.7e-4,0 -3.7e-4,0 0,0 0,-3.03e-4 0,-3.03e-4 0,0 -3.5e-4,-4.55e-4 -3.5e-4,-4.55e-4 0,0 -3.9e-4,-3.04e-4 -3.9e-4,-3.04e-4 0,0 -3.9e-4,0 -3.9e-4,0 -0.003,-0.0018 -0.0151,-0.0036 -0.0278,-0.0036 z"
       style="fill:#5027d5;stroke-width:2.18139;stroke-linecap:round;stroke-linejoin:round"
       id="path37" />
    <path
       d="m -179.7273,50.629242 c -0.0342,0.02945 2.18768,2.578416 4.93637,5.665685 2.74867,3.087323 5.0211,5.589008 5.04905,5.559314 0.10146,-0.107781 -0.99535,-5.463412 -1.12885,-5.511984 -0.0757,-0.02758 -2.08456,-1.336453 -4.46526,-2.908729 -2.38069,-1.57232 -4.35738,-2.833998 -4.39131,-2.804286 z"
       style="fill:#5027d5;stroke-width:2.18139;stroke-linecap:round;stroke-linejoin:round"
       id="path36" />
    <path
       d="m -161.06022,46.980184 c -0.0897,-0.08967 -5.92801,8.440143 -6.02138,8.797089 -0.0501,0.190447 0.13749,1.520036 0.4171,2.954159 0.27955,1.434095 0.52776,2.588768 0.55091,2.565527 0.0961,-0.09606 5.09937,-14.270828 5.05337,-14.316775 z"
       style="fill:#5027d5;stroke-width:2.18139;stroke-linecap:round;stroke-linejoin:round"
       id="path35" />
    <path
       d="m -189.65088,45.043751 c -0.10441,-0.06444 -4.45344,11.813152 -9.49785,25.934733 l -0.63741,1.782134 0.50162,-0.09655 c 12.40583,-2.356383 29.07719,-5.659053 29.04296,-5.754455 -0.056,-0.157253 -19.22518,-21.752098 -19.40932,-21.865859 z"
       style="fill:#5027d5;stroke-width:2.18139;stroke-linecap:round;stroke-linejoin:round"
       id="path34" />
    <path
       d="m -153.95887,38.027366 c -0.069,0.08051 -2.30007,6.273958 -4.95954,13.763172 -2.65934,7.489197 -4.86798,13.707995 -4.90894,13.817998 -0.0459,0.123864 1.0779,-0.02249 2.95413,-0.384668 1.66672,-0.321897 8.39872,-1.62663 14.95837,-2.898465 l 11.92608,-2.312997 -2.27832,-2.533067 c -1.25318,-1.392896 -5.7192,-6.371428 -9.92333,-11.064549 -4.20429,-4.693086 -7.69994,-8.467973 -7.76845,-8.387424 z"
       style="fill:#5027d5;stroke-width:2.18139;stroke-linecap:round;stroke-linejoin:round"
       id="path33" />
    <path
       d="m -158.71846,37.056987 c -0.0321,-0.03211 -23.1616,4.474538 -26.70544,5.203211 -0.18082,0.03713 2.95701,2.209456 7.68702,5.322546 4.39575,2.893074 8.03186,5.265237 8.08145,5.270904 0.10511,0.01205 11.004,-15.729683 10.93697,-15.796661 z"
       style="fill:#5027d5;stroke-width:2.18139;stroke-linecap:round;stroke-linejoin:round"
       id="path32" />
    <path
       d="m -201.18808,36.559287 c -0.0335,0.02928 1.62147,1.92725 3.67761,4.21679 2.0561,2.289515 3.79037,4.160857 3.85292,4.160857 0.10372,0 1.00754,-2.452633 1.00754,-2.73425 0,-0.13984 -8.44736,-5.72325 -8.53807,-5.643397 z"
       style="fill:#5027d5;stroke-width:2.18139;stroke-linecap:round;stroke-linejoin:round"
       id="path31" />
    <path
       d="m -146.61464,26.167744 c -5.1e-4,5.4e-5 -0.002,5.25e-4 -0.003,8.78e-4 -0.10172,0.04434 -1.35779,1.782521 -2.85965,3.955416 l -2.82056,4.077117 0.99775,1.134313 c 0.53676,0.611506 1.00656,1.08559 1.05842,1.070148 1.4e-4,-7.5e-5 5e-4,-3.04e-4 8.9e-4,-3.99e-4 0,0 4.2e-4,-3.86e-4 4.2e-4,-3.86e-4 0,0 3.6e-4,-3.93e-4 3.6e-4,-3.93e-4 0.13713,-0.137072 3.67536,-10.115571 3.62885,-10.233859 0,-2.85e-4 2e-5,-6.58e-4 0,-8.24e-4 0,0 0,-3.85e-4 0,-3.85e-4 0,0 -4.3e-4,-3.82e-4 -4.3e-4,-3.82e-4 0,0 0,-4.07e-4 0,-4.07e-4 0,0 -4.9e-4,0 -4.9e-4,0 0,0 0,-3.91e-4 0,-3.91e-4 0,0 -4.5e-4,0 -4.5e-4,0 0,0 -4.4e-4,0 -4.4e-4,0 0,0 -3.9e-4,-3.83e-4 -3.9e-4,-3.83e-4 0,0 -3.8e-4,0 -3.8e-4,0 -1.7e-4,-1.4e-5 -4.5e-4,-2.8e-5 -5.2e-4,0 z"
       style="fill:#5027d5;stroke-width:2.18139;stroke-linecap:round;stroke-linejoin:round"
       id="path30" />
    <path
       d="m -186.13328,24.072051 c -0.11548,-0.115437 -21.0384,3.994977 -20.99244,4.124068 0.0258,0.07201 3.57444,2.444873 7.88659,5.271288 4.31216,2.826458 7.87778,5.100513 7.92337,5.054922 0.13666,-0.136716 5.24698,-14.385713 5.18248,-14.450278 z"
       style="fill:#5027d5;stroke-width:2.18139;stroke-linecap:round;stroke-linejoin:round"
       id="path29" />
    <path
       d="m -144.12426,15.941322 c -0.0327,-0.03353 -4.70031,0.835749 -10.36954,1.932512 -5.66919,1.096742 -10.38656,1.993954 -10.48274,1.993954 -0.0962,0 2.15492,2.597782 5.00216,5.772916 2.8472,3.175092 5.23468,5.712 5.30596,5.636722 0.32824,-0.346465 10.59762,-15.282784 10.54416,-15.336104 z"
       style="fill:#5027d5;stroke-width:2.18139;stroke-linecap:round;stroke-linejoin:round"
       id="path28" />
    <path
       d="m -177.59562,11.404074 c -0.0947,-0.01154 -9.92805,27.198029 -9.91927,27.44732 0,0.0744 0.065,0.136023 0.13968,0.13616 0.31635,0 28.66138,-5.610946 28.9549,-5.732219 0.26619,-0.109929 -1.38927,-2.048481 -9.37888,-10.986669 -5.33593,-5.969403 -9.74501,-10.858333 -9.79643,-10.864592 z"
       style="fill:#5027d5;stroke-width:2.18139;stroke-linecap:round;stroke-linejoin:round"
       id="path27" />
    <path
       d="m -178.6411,3.153582 c -0.1949,0.010523 -0.38928,0.034094 -0.58145,0.070822 -1.54007,0.2941146 -2.88802,1.439729 -3.42525,2.9126695 v 0.00232 l -4.13853,11.3647125 -26.19955,5.057634 c -1.57355,0.303828 -2.94227,1.501101 -3.45381,3.019876 -0.51146,1.518782 -0.1457,3.30001 0.92342,4.493835 l 17.27883,19.292318 -8.65115,24.049119 v 0.0018 c -0.54108,1.506613 -0.21209,3.291479 0.83067,4.506219 1.04285,1.214874 2.76088,1.811516 4.33223,1.504952 l 25.89708,-5.034787 8.16988,9.140674 c 1.04422,1.168739 2.72043,1.73309 4.25944,1.436532 1.53891,-0.296228 2.88573,-1.443762 3.42087,-2.916976 v -3.75e-4 -3.12e-4 -4.11e-4 -3.48e-4 l 4.2129,-11.619609 26.00637,-4.964609 c 1.57773,-0.301592 2.95185,-1.499945 3.46397,-3.022275 0.51148,-1.521527 0.1423,-3.306973 -0.93142,-4.500507 v -0.0018 l -17.2794,-19.220417 8.7686,-24.083914 c 0.54619,-1.505479 0.22348,-3.294334 -0.81592,-4.512604 -1.03961,-1.2183225 -2.75515,-1.8205061 -4.3279,-1.5177609 l -0.007,0.00223 -26.04779,5.0554229 -8.03253,-9.0005439 c -0.91237,-1.0217538 -2.30671,-1.5839498 -3.67134,-1.5114886 z m 0.17568,2.8637611 c 0.0727,-0.00411 0.14519,-0.00366 0.21716,0.00107 0.43181,0.030605 0.84169,0.2275057 1.13743,0.5587446 l 9.11757,10.2194743 27.65115,-5.367948 c 1.28391,-0.24715 2.34785,0.999187 1.90147,2.228345 l -9.35842,25.704575 18.43493,20.504891 c 0.87829,0.97492 0.35361,2.535495 -0.93499,2.781902 l -27.61218,5.270619 -4.76766,13.155541 c -0.43483,1.197532 -1.9907,1.497188 -2.83948,0.546866 l -9.25723,-10.35711 -27.50291,5.346804 c -1.28309,0.250817 -2.34989,-0.991993 -1.90787,-2.222397 l 9.22869,-25.661113 -18.42057,-20.568299 c -0.87294,-0.974894 -0.34929,-2.529643 0.93554,-2.777663 l 27.79715,-5.365212 4.69531,-12.8949342 c 0.20316,-0.556798 0.68438,-0.9655891 1.26658,-1.0767964 0.0726,-0.013879 0.14556,-0.023036 0.21833,-0.027374 z"
       style="fill:#5027d5;stroke-width:2.18139;stroke-linecap:round;stroke-linejoin:round"
       id="path26" />
    <path
       style="opacity:0;fill:#ffffff;fill-opacity:0;stroke-width:0.272576"
       d="m -165.65383,81.196021 c -0.47516,-0.48696 -2.68981,-2.940288 -4.92147,-5.451283 -2.23166,-2.51111 -4.15564,-4.565776 -4.27551,-4.565776 -0.11988,0 -6.20325,1.164652 -13.51862,2.588626 -7.31537,1.423903 -13.69649,2.589001 -14.18026,2.589349 -0.62568,5.09e-4 -1.00207,-0.185912 -1.30379,-0.646445 -0.40405,-0.6165 -0.20385,-1.259304 4.21672,-13.536095 2.55251,-7.088855 4.67249,-13.038603 4.71106,-13.221704 0.0385,-0.183109 -4.13103,-5.028852 -9.26577,-10.768355 -9.9269,-11.0961 -10.17744,-11.45072 -8.72257,-12.346175 0.33731,-0.207606 6.80768,-1.566165 14.37862,-3.018996 7.57093,-1.452832 13.84923,-2.727067 13.95179,-2.831628 0.10256,-0.104545 1.17895,-2.933159 2.39196,-6.285778 1.21302,-3.35266 2.32787,-6.3243698 2.47744,-6.6038425 0.41235,-0.7704874 1.2547,-1.1358546 1.86528,-0.8090711 0.41969,0.2246067 8.44281,8.9827876 9.44214,10.3071906 0.23267,0.308369 2.71376,-0.100729 14.41583,-2.376869 13.16769,-2.56126 14.17893,-2.720472 14.77887,-2.327248 0.38038,0.249232 0.64431,0.689448 0.64431,1.074866 0,0.358997 -2.08522,6.36949 -4.63363,13.356649 -2.54869,6.98716 -4.63414,12.828852 -4.63414,12.981521 0,0.152666 3.28404,3.921575 7.29777,8.375348 10.49123,11.64186 11.51032,12.814214 11.51032,13.241456 0,0.211054 -0.21452,0.644838 -0.47676,0.963772 -0.41205,0.500615 -2.39246,0.943842 -14.4952,3.243737 l -14.01807,2.663919 -2.41035,6.651877 c -1.32566,3.658581 -2.61085,6.873597 -2.856,7.144566 -0.65718,0.726138 -1.39823,0.602899 -2.36997,-0.393611 z m -1.89813,-9.063132 -0.3585,-1.908113 -0.90238,0.09051 c -2.18966,0.219659 -2.20436,0.341328 -0.28289,2.342433 0.96686,1.006765 1.79041,1.73002 1.83012,1.606888 0.0394,-0.122927 -0.0892,-1.082192 -0.28635,-2.131718 z m 4.82928,-0.424563 c 0.94944,-2.561279 0.93549,-2.822619 -0.13879,-2.60794 -0.46847,0.09386 -1.02045,0.17048 -1.22659,0.17048 -0.23332,0 -0.3748,0.303645 -0.3748,0.804278 0,1.142777 0.54893,3.557075 0.80875,3.557075 0.12013,0 0.53926,-0.86571 0.93143,-1.923893 z m -23.85754,-1.368138 c 12.51764,-2.436032 16.15229,-3.190802 16.35933,-3.397983 0.13117,-0.131022 -0.89551,-1.316131 -10.95387,-12.643778 -4.46911,-5.033047 -8.25923,-9.150992 -8.42249,-9.150992 -0.16329,0 -0.59886,0.79729 -0.96797,1.771772 -0.94882,2.504997 -9.3331,25.680266 -9.3331,25.798034 0,0.200345 0.89884,0.03918 13.3181,-2.377053 z m 38.88103,-7.518319 c 7.4961,-1.445368 13.67504,-2.665839 13.73107,-2.712 0.0575,-0.04561 -0.23591,-0.487593 -0.64927,-0.981149 -0.82621,-0.987049 -16.29964,-18.152897 -18.12724,-20.110186 l -1.14152,-1.22246 -0.34428,0.6773 c -0.38589,0.759064 -9.68728,26.801591 -9.68728,27.122917 0,0.318041 1.61785,0.0407 16.21852,-2.774422 z m -22.1958,-2.878518 c -0.73047,-3.820547 -0.44757,-3.447865 -4.72516,-6.225099 -2.13432,-1.385721 -4.15658,-2.699201 -4.49391,-2.918859 -0.33731,-0.219632 -0.61332,-0.285161 -0.61332,-0.145615 0,0.510397 9.78054,11.38052 10.02228,11.138924 0.0756,-0.07569 -0.01,-0.907785 -0.18989,-1.849351 z m 6.36923,-5.46002 c 2.95348,-8.397962 2.81476,-7.88711 1.84622,-6.800482 -1.32335,1.484746 -5.50907,7.876622 -5.50967,8.41367 -5.5e-4,0.921172 0.87279,5.26953 1.05892,5.26953 0.10119,0 1.27322,-3.097256 2.60453,-6.882718 z m -3.89638,-4.497597 c 4.82172,-6.871892 8.68351,-12.568891 8.68351,-12.810133 0,-0.142672 -2.11602,0.148137 -4.70204,0.646248 -14.60137,2.812388 -22.0109,4.326391 -22.0109,4.497532 0,0.106228 0.9911,0.88764 2.20245,1.736437 3.01281,2.111136 13.36377,8.860164 13.5888,8.860164 0.1002,0 1.10738,-1.318612 2.23818,-2.930248 z m -25.55101,-6.249769 c 0.23898,-0.701343 0.43451,-1.377572 0.43451,-1.502748 0,-0.266203 -8.08607,-5.672076 -8.48426,-5.672076 -0.14807,0 -0.0971,0.245808 0.11335,0.546233 0.73989,1.056329 7.03629,7.903773 7.2677,7.903773 0.12882,0 0.42974,-0.573829 0.6687,-1.275182 z m 20.33289,-7.479333 c 7.72083,-1.519562 14.14032,-2.855949 14.26566,-2.969766 0.12526,-0.113793 -0.48282,-1.048907 -1.3513,-2.077999 -2.08283,-2.467915 -14.23345,-16.100803 -16.32616,-18.317778 l -1.64002,-1.737403 -2.27343,6.229943 c -2.57454,7.055069 -7.23755,20.091381 -7.5178,21.017437 -0.14488,0.478715 -0.0769,0.613864 0.30977,0.615863 0.27245,0.0011 6.81244,-1.240738 14.53328,-2.760297 z m -15.63693,-5.639416 c 1.25428,-3.494039 2.28047,-6.407249 2.28047,-6.473793 0,-0.06647 -0.23591,-0.120989 -0.52425,-0.120989 -0.78355,0 -19.97467,3.82005 -20.40724,4.062109 -0.25374,0.142003 1.74841,1.60663 6.25865,4.578416 3.64744,2.403286 7.24503,4.750973 7.99462,5.217076 l 1.36292,0.847457 0.37718,-0.878746 c 0.20746,-0.483296 1.4034,-3.737495 2.65765,-7.23153 z m 39.90102,1.105632 c 0.94018,-2.661067 1.77263,-5.008367 1.85009,-5.216233 0.4276,-1.150947 -0.80427,0.287097 -3.20965,3.746679 l -2.72158,3.913904 0.98098,1.196964 c 0.53936,0.658341 1.07294,1.196979 1.18539,1.196979 0.1128,0 0.97427,-2.177233 1.91477,-4.838293 z m -5.70448,-0.962597 c 3.02092,-4.218121 10.08208,-14.712804 9.97285,-14.821981 -0.0791,-0.07895 -4.72762,0.726407 -10.33027,1.789689 -5.60294,1.063245 -10.27314,1.933203 -10.37846,1.933203 -0.48525,0 -0.0314,0.677085 2.03807,3.041085 3.25861,3.722257 7.88403,8.681192 8.08828,8.671302 0.0972,-0.0053 0.37143,-0.280697 0.60953,-0.613298 z"
       id="path3" />
    <path
       style="opacity:0;fill:#ffffff;fill-opacity:0;stroke-width:0.272576"
       d="m -165.65383,81.196021 c -0.47516,-0.48696 -2.68981,-2.940288 -4.92147,-5.451283 -2.23166,-2.51111 -4.15564,-4.565776 -4.27551,-4.565776 -0.11988,0 -6.20325,1.164652 -13.51862,2.588626 -7.31537,1.423903 -13.69649,2.589001 -14.18026,2.589349 -0.62568,5.09e-4 -1.00207,-0.185912 -1.30379,-0.646445 -0.40405,-0.6165 -0.20385,-1.259304 4.21672,-13.536095 2.55251,-7.088855 4.67249,-13.038603 4.71106,-13.221704 0.0385,-0.183109 -4.13103,-5.028852 -9.26577,-10.768355 -9.9269,-11.0961 -10.17744,-11.45072 -8.72257,-12.346175 0.33731,-0.207606 6.80768,-1.566165 14.37862,-3.018996 7.57093,-1.452832 13.84923,-2.727067 13.95179,-2.831628 0.10256,-0.104545 1.17895,-2.933159 2.39196,-6.285778 1.21302,-3.35266 2.32787,-6.3243698 2.47744,-6.6038425 0.41235,-0.7704874 1.2547,-1.1358546 1.86528,-0.8090711 0.41969,0.2246067 8.44281,8.9827876 9.44214,10.3071906 0.23267,0.308369 2.71376,-0.100729 14.41583,-2.376869 13.16769,-2.56126 14.17893,-2.720472 14.77887,-2.327248 0.38038,0.249232 0.64431,0.689448 0.64431,1.074866 0,0.358997 -2.08522,6.36949 -4.63363,13.356649 -2.54869,6.98716 -4.63414,12.828852 -4.63414,12.981521 0,0.152666 3.28404,3.921575 7.29777,8.375348 10.49123,11.64186 11.51032,12.814214 11.51032,13.241456 0,0.211054 -0.21452,0.644838 -0.47676,0.963772 -0.41205,0.500615 -2.39246,0.943842 -14.4952,3.243737 l -14.01807,2.663919 -2.41035,6.651877 c -1.32566,3.658581 -2.61085,6.873597 -2.856,7.144566 -0.65718,0.726138 -1.39823,0.602899 -2.36997,-0.393611 z m -1.89813,-9.063132 -0.3585,-1.908113 -0.90238,0.09051 c -2.18966,0.219659 -2.20436,0.341328 -0.28289,2.342433 0.96686,1.006765 1.79041,1.73002 1.83012,1.606888 0.0394,-0.122927 -0.0892,-1.082192 -0.28635,-2.131718 z m 4.82928,-0.424563 c 0.94944,-2.561279 0.93549,-2.822619 -0.13879,-2.60794 -0.46847,0.09386 -1.02045,0.17048 -1.22659,0.17048 -0.23332,0 -0.3748,0.303645 -0.3748,0.804278 0,1.142777 0.54893,3.557075 0.80875,3.557075 0.12013,0 0.53926,-0.86571 0.93143,-1.923893 z m -23.85754,-1.368138 c 12.51764,-2.436032 16.15229,-3.190802 16.35933,-3.397983 0.13117,-0.131022 -0.89551,-1.316131 -10.95387,-12.643778 -4.46911,-5.033047 -8.25923,-9.150992 -8.42249,-9.150992 -0.16329,0 -0.59886,0.79729 -0.96797,1.771772 -0.94882,2.504997 -9.3331,25.680266 -9.3331,25.798034 0,0.200345 0.89884,0.03918 13.3181,-2.377053 z m 38.88103,-7.518319 c 7.4961,-1.445368 13.67504,-2.665839 13.73107,-2.712 0.0575,-0.04561 -0.23591,-0.487593 -0.64927,-0.981149 -0.82621,-0.987049 -16.29964,-18.152897 -18.12724,-20.110186 l -1.14152,-1.22246 -0.34428,0.6773 c -0.38589,0.759064 -9.68728,26.801591 -9.68728,27.122917 0,0.318041 1.61785,0.0407 16.21852,-2.774422 z m -22.1958,-2.878518 c -0.73047,-3.820547 -0.44757,-3.447865 -4.72516,-6.225099 -2.13432,-1.385721 -4.15658,-2.699201 -4.49391,-2.918859 -0.33731,-0.219632 -0.61332,-0.285161 -0.61332,-0.145615 0,0.510397 9.78054,11.38052 10.02228,11.138924 0.0756,-0.07569 -0.01,-0.907785 -0.18989,-1.849351 z m 6.36923,-5.46002 c 2.95348,-8.397962 2.81476,-7.88711 1.84622,-6.800482 -1.32335,1.484746 -5.50907,7.876622 -5.50967,8.41367 -5.5e-4,0.921172 0.87279,5.26953 1.05892,5.26953 0.10119,0 1.27322,-3.097256 2.60453,-6.882718 z m -3.89638,-4.497597 c 4.82172,-6.871892 8.68351,-12.568891 8.68351,-12.810133 0,-0.142672 -2.11602,0.148137 -4.70204,0.646248 -14.60137,2.812388 -22.0109,4.326391 -22.0109,4.497532 0,0.106228 0.9911,0.88764 2.20245,1.736437 3.01281,2.111136 13.36377,8.860164 13.5888,8.860164 0.1002,0 1.10738,-1.318612 2.23818,-2.930248 z m -25.55101,-6.249769 c 0.23898,-0.701343 0.43451,-1.377572 0.43451,-1.502748 0,-0.266203 -8.08607,-5.672076 -8.48426,-5.672076 -0.14807,0 -0.0971,0.245808 0.11335,0.546233 0.73989,1.056329 7.03629,7.903773 7.2677,7.903773 0.12882,0 0.42974,-0.573829 0.6687,-1.275182 z m 20.33289,-7.479333 c 7.72083,-1.519562 14.14032,-2.855949 14.26566,-2.969766 0.12526,-0.113793 -0.48282,-1.048907 -1.3513,-2.077999 -2.08283,-2.467915 -14.23345,-16.100803 -16.32616,-18.317778 l -1.64002,-1.737403 -2.27343,6.229943 c -2.57454,7.055069 -7.23755,20.091381 -7.5178,21.017437 -0.14488,0.478715 -0.0769,0.613864 0.30977,0.615863 0.27245,0.0011 6.81244,-1.240738 14.53328,-2.760297 z m -15.63693,-5.639416 c 1.25428,-3.494039 2.28047,-6.407249 2.28047,-6.473793 0,-0.06647 -0.23591,-0.120989 -0.52425,-0.120989 -0.78355,0 -19.97467,3.82005 -20.40724,4.062109 -0.25374,0.142003 1.74841,1.60663 6.25865,4.578416 3.64744,2.403286 7.24503,4.750973 7.99462,5.217076 l 1.36292,0.847457 0.37718,-0.878746 c 0.20746,-0.483296 1.4034,-3.737495 2.65765,-7.23153 z m 39.90102,1.105632 c 0.94018,-2.661067 1.77263,-5.008367 1.85009,-5.216233 0.4276,-1.150947 -0.80427,0.287097 -3.20965,3.746679 l -2.72158,3.913904 0.98098,1.196964 c 0.53936,0.658341 1.07294,1.196979 1.18539,1.196979 0.1128,0 0.97427,-2.177233 1.91477,-4.838293 z m -5.70448,-0.962597 c 3.02092,-4.218121 10.08208,-14.712804 9.97285,-14.821981 -0.0791,-0.07895 -4.72762,0.726407 -10.33027,1.789689 -5.60294,1.063245 -10.27314,1.933203 -10.37846,1.933203 -0.48525,0 -0.0314,0.677085 2.03807,3.041085 3.25861,3.722257 7.88403,8.681192 8.08828,8.671302 0.0972,-0.0053 0.37143,-0.280697 0.60953,-0.613298 z"
       id="path4" />
    <path
       style="opacity:0;fill:#ffffff;fill-opacity:0;stroke-width:0.272576"
       d="m -165.65383,81.196021 c -0.47516,-0.48696 -2.68981,-2.940288 -4.92147,-5.451283 -2.23166,-2.51111 -4.15564,-4.565776 -4.27551,-4.565776 -0.11988,0 -6.20325,1.164652 -13.51862,2.588626 -7.31537,1.423903 -13.69649,2.589001 -14.18026,2.589349 -0.62568,5.09e-4 -1.00207,-0.185912 -1.30379,-0.646445 -0.40405,-0.6165 -0.20385,-1.259304 4.21672,-13.536095 2.55251,-7.088855 4.67249,-13.038603 4.71106,-13.221704 0.0385,-0.183109 -4.13103,-5.028852 -9.26577,-10.768355 -9.9269,-11.0961 -10.17744,-11.45072 -8.72257,-12.346175 0.33731,-0.207606 6.80768,-1.566165 14.37862,-3.018996 7.57093,-1.452832 13.84923,-2.727067 13.95179,-2.831628 0.10256,-0.104545 1.17895,-2.933159 2.39196,-6.285778 1.21302,-3.35266 2.32787,-6.3243698 2.47744,-6.6038425 0.41235,-0.7704874 1.2547,-1.1358546 1.86528,-0.8090711 0.41969,0.2246067 8.44281,8.9827876 9.44214,10.3071906 0.23267,0.308369 2.71376,-0.100729 14.41583,-2.376869 13.16769,-2.56126 14.17893,-2.720472 14.77887,-2.327248 0.38038,0.249232 0.64431,0.689448 0.64431,1.074866 0,0.358997 -2.08522,6.36949 -4.63363,13.356649 -2.54869,6.98716 -4.63414,12.828852 -4.63414,12.981521 0,0.152666 3.28404,3.921575 7.29777,8.375348 10.49123,11.64186 11.51032,12.814214 11.51032,13.241456 0,0.211054 -0.21452,0.644838 -0.47676,0.963772 -0.41205,0.500615 -2.39246,0.943842 -14.4952,3.243737 l -14.01807,2.663919 -2.41035,6.651877 c -1.32566,3.658581 -2.61085,6.873597 -2.856,7.144566 -0.65718,0.726138 -1.39823,0.602899 -2.36997,-0.393611 z m -1.89813,-9.063132 -0.3585,-1.908113 -0.90238,0.09051 c -2.18966,0.219659 -2.20436,0.341328 -0.28289,2.342433 0.96686,1.006765 1.79041,1.73002 1.83012,1.606888 0.0394,-0.122927 -0.0892,-1.082192 -0.28635,-2.131718 z m 4.82928,-0.424563 c 0.94944,-2.561279 0.93549,-2.822619 -0.13879,-2.60794 -0.46847,0.09386 -1.02045,0.17048 -1.22659,0.17048 -0.23332,0 -0.3748,0.303645 -0.3748,0.804278 0,1.142777 0.54893,3.557075 0.80875,3.557075 0.12013,0 0.53926,-0.86571 0.93143,-1.923893 z m -23.85754,-1.368138 c 12.51764,-2.436032 16.15229,-3.190802 16.35933,-3.397983 0.13117,-0.131022 -0.89551,-1.316131 -10.95387,-12.643778 -4.46911,-5.033047 -8.25923,-9.150992 -8.42249,-9.150992 -0.16329,0 -0.59886,0.79729 -0.96797,1.771772 -0.94882,2.504997 -9.3331,25.680266 -9.3331,25.798034 0,0.200345 0.89884,0.03918 13.3181,-2.377053 z m 38.88103,-7.518319 c 7.4961,-1.445368 13.67504,-2.665839 13.73107,-2.712 0.0575,-0.04561 -0.23591,-0.487593 -0.64927,-0.981149 -0.82621,-0.987049 -16.29964,-18.152897 -18.12724,-20.110186 l -1.14152,-1.22246 -0.34428,0.6773 c -0.38589,0.759064 -9.68728,26.801591 -9.68728,27.122917 0,0.318041 1.61785,0.0407 16.21852,-2.774422 z m -22.1958,-2.878518 c -0.73047,-3.820547 -0.44757,-3.447865 -4.72516,-6.225099 -2.13432,-1.385721 -4.15658,-2.699201 -4.49391,-2.918859 -0.33731,-0.219632 -0.61332,-0.285161 -0.61332,-0.145615 0,0.510397 9.78054,11.38052 10.02228,11.138924 0.0756,-0.07569 -0.01,-0.907785 -0.18989,-1.849351 z m 6.36923,-5.46002 c 2.95348,-8.397962 2.81476,-7.88711 1.84622,-6.800482 -1.32335,1.484746 -5.50907,7.876622 -5.50967,8.41367 -5.5e-4,0.921172 0.87279,5.26953 1.05892,5.26953 0.10119,0 1.27322,-3.097256 2.60453,-6.882718 z m -3.89638,-4.497597 c 4.82172,-6.871892 8.68351,-12.568891 8.68351,-12.810133 0,-0.142672 -2.11602,0.148137 -4.70204,0.646248 -14.60137,2.812388 -22.0109,4.326391 -22.0109,4.497532 0,0.106228 0.9911,0.88764 2.20245,1.736437 3.01281,2.111136 13.36377,8.860164 13.5888,8.860164 0.1002,0 1.10738,-1.318612 2.23818,-2.930248 z m -25.55101,-6.249769 c 0.23898,-0.701343 0.43451,-1.377572 0.43451,-1.502748 0,-0.266203 -8.08607,-5.672076 -8.48426,-5.672076 -0.14807,0 -0.0971,0.245808 0.11335,0.546233 0.73989,1.056329 7.03629,7.903773 7.2677,7.903773 0.12882,0 0.42974,-0.573829 0.6687,-1.275182 z m 20.33289,-7.479333 c 7.72083,-1.519562 14.14032,-2.855949 14.26566,-2.969766 0.12526,-0.113793 -0.48282,-1.048907 -1.3513,-2.077999 -2.08283,-2.467915 -14.23345,-16.100803 -16.32616,-18.317778 l -1.64002,-1.737403 -2.27343,6.229943 c -2.57454,7.055069 -7.23755,20.091381 -7.5178,21.017437 -0.14488,0.478715 -0.0769,0.613864 0.30977,0.615863 0.27245,0.0011 6.81244,-1.240738 14.53328,-2.760297 z m -15.63693,-5.639416 c 1.25428,-3.494039 2.28047,-6.407249 2.28047,-6.473793 0,-0.06647 -0.23591,-0.120989 -0.52425,-0.120989 -0.78355,0 -19.97467,3.82005 -20.40724,4.062109 -0.25374,0.142003 1.74841,1.60663 6.25865,4.578416 3.64744,2.403286 7.24503,4.750973 7.99462,5.217076 l 1.36292,0.847457 0.37718,-0.878746 c 0.20746,-0.483296 1.4034,-3.737495 2.65765,-7.23153 z m 39.90102,1.105632 c 0.94018,-2.661067 1.77263,-5.008367 1.85009,-5.216233 0.4276,-1.150947 -0.80427,0.287097 -3.20965,3.746679 l -2.72158,3.913904 0.98098,1.196964 c 0.53936,0.658341 1.07294,1.196979 1.18539,1.196979 0.1128,0 0.97427,-2.177233 1.91477,-4.838293 z m -5.70448,-0.962597 c 3.02092,-4.218121 10.08208,-14.712804 9.97285,-14.821981 -0.0791,-0.07895 -4.72762,0.726407 -10.33027,1.789689 -5.60294,1.063245 -10.27314,1.933203 -10.37846,1.933203 -0.48525,0 -0.0314,0.677085 2.03807,3.041085 3.25861,3.722257 7.88403,8.681192 8.08828,8.671302 0.0972,-0.0053 0.37143,-0.280697 0.60953,-0.613298 z"
       id="path5" />
    <path
       style="opacity:0;fill:#ffffff;fill-opacity:0;stroke-width:0.272576"
       d="m -165.65383,81.196021 c -0.47516,-0.48696 -2.68981,-2.940288 -4.92147,-5.451283 -2.23166,-2.51111 -4.15564,-4.565776 -4.27551,-4.565776 -0.11988,0 -6.20325,1.164652 -13.51862,2.588626 -7.31537,1.423903 -13.69649,2.589001 -14.18026,2.589349 -0.62568,5.09e-4 -1.00207,-0.185912 -1.30379,-0.646445 -0.40405,-0.6165 -0.20385,-1.259304 4.21672,-13.536095 2.55251,-7.088855 4.67249,-13.038603 4.71106,-13.221704 0.0385,-0.183109 -4.13103,-5.028852 -9.26577,-10.768355 -9.9269,-11.0961 -10.17744,-11.45072 -8.72257,-12.346175 0.33731,-0.207606 6.80768,-1.566165 14.37862,-3.018996 7.57093,-1.452832 13.84923,-2.727067 13.95179,-2.831628 0.10256,-0.104545 1.17895,-2.933159 2.39196,-6.285778 1.21302,-3.35266 2.32787,-6.3243698 2.47744,-6.6038425 0.41235,-0.7704874 1.2547,-1.1358546 1.86528,-0.8090711 0.41969,0.2246067 8.44281,8.9827876 9.44214,10.3071906 0.23267,0.308369 2.71376,-0.100729 14.41583,-2.376869 13.16769,-2.56126 14.17893,-2.720472 14.77887,-2.327248 0.38038,0.249232 0.64431,0.689448 0.64431,1.074866 0,0.358997 -2.08522,6.36949 -4.63363,13.356649 -2.54869,6.98716 -4.63414,12.828852 -4.63414,12.981521 0,0.152666 3.28404,3.921575 7.29777,8.375348 10.49123,11.64186 11.51032,12.814214 11.51032,13.241456 0,0.211054 -0.21452,0.644838 -0.47676,0.963772 -0.41205,0.500615 -2.39246,0.943842 -14.4952,3.243737 l -14.01807,2.663919 -2.41035,6.651877 c -1.32566,3.658581 -2.61085,6.873597 -2.856,7.144566 -0.65718,0.726138 -1.39823,0.602899 -2.36997,-0.393611 z m -1.89813,-9.063132 -0.3585,-1.908113 -0.90238,0.09051 c -2.18966,0.219659 -2.20436,0.341328 -0.28289,2.342433 0.96686,1.006765 1.79041,1.73002 1.83012,1.606888 0.0394,-0.122927 -0.0892,-1.082192 -0.28635,-2.131718 z m 4.82928,-0.424563 c 0.94944,-2.561279 0.93549,-2.822619 -0.13879,-2.60794 -0.46847,0.09386 -1.02045,0.17048 -1.22659,0.17048 -0.23332,0 -0.3748,0.303645 -0.3748,0.804278 0,1.142777 0.54893,3.557075 0.80875,3.557075 0.12013,0 0.53926,-0.86571 0.93143,-1.923893 z m -23.85754,-1.368138 c 12.51764,-2.436032 16.15229,-3.190802 16.35933,-3.397983 0.13117,-0.131022 -0.89551,-1.316131 -10.95387,-12.643778 -4.46911,-5.033047 -8.25923,-9.150992 -8.42249,-9.150992 -0.16329,0 -0.59886,0.79729 -0.96797,1.771772 -0.94882,2.504997 -9.3331,25.680266 -9.3331,25.798034 0,0.200345 0.89884,0.03918 13.3181,-2.377053 z m 38.88103,-7.518319 c 7.4961,-1.445368 13.67504,-2.665839 13.73107,-2.712 0.0575,-0.04561 -0.23591,-0.487593 -0.64927,-0.981149 -0.82621,-0.987049 -16.29964,-18.152897 -18.12724,-20.110186 l -1.14152,-1.22246 -0.34428,0.6773 c -0.38589,0.759064 -9.68728,26.801591 -9.68728,27.122917 0,0.318041 1.61785,0.0407 16.21852,-2.774422 z m -22.1958,-2.878518 c -0.73047,-3.820547 -0.44757,-3.447865 -4.72516,-6.225099 -2.13432,-1.385721 -4.15658,-2.699201 -4.49391,-2.918859 -0.33731,-0.219632 -0.61332,-0.285161 -0.61332,-0.145615 0,0.510397 9.78054,11.38052 10.02228,11.138924 0.0756,-0.07569 -0.01,-0.907785 -0.18989,-1.849351 z m 6.36923,-5.46002 c 2.95348,-8.397962 2.81476,-7.88711 1.84622,-6.800482 -1.32335,1.484746 -5.50907,7.876622 -5.50967,8.41367 -5.5e-4,0.921172 0.87279,5.26953 1.05892,5.26953 0.10119,0 1.27322,-3.097256 2.60453,-6.882718 z m -3.89638,-4.497597 c 4.82172,-6.871892 8.68351,-12.568891 8.68351,-12.810133 0,-0.142672 -2.11602,0.148137 -4.70204,0.646248 -14.60137,2.812388 -22.0109,4.326391 -22.0109,4.497532 0,0.106228 0.9911,0.88764 2.20245,1.736437 3.01281,2.111136 13.36377,8.860164 13.5888,8.860164 0.1002,0 1.10738,-1.318612 2.23818,-2.930248 z m -25.55101,-6.249769 c 0.23898,-0.701343 0.43451,-1.377572 0.43451,-1.502748 0,-0.266203 -8.08607,-5.672076 -8.48426,-5.672076 -0.14807,0 -0.0971,0.245808 0.11335,0.546233 0.73989,1.056329 7.03629,7.903773 7.2677,7.903773 0.12882,0 0.42974,-0.573829 0.6687,-1.275182 z m 19.37885,-7.320435 c 7.04621,-1.417506 13.30193,-2.647378 13.90163,-2.733013 0.59963,-0.08565 1.19273,-0.256277 1.31807,-0.379151 0.12526,-0.122864 -0.48282,-1.065407 -1.3513,-2.094499 -2.08283,-2.467915 -14.23345,-16.100803 -16.32616,-18.317778 l -1.64002,-1.737403 -2.27343,6.229943 c -2.57454,7.055069 -7.23755,20.091381 -7.5178,21.017437 -0.15573,0.514516 -0.0839,0.611566 0.44605,0.602546 0.34743,-0.006 6.39675,-1.170551 13.44296,-2.588082 z m -14.68289,-5.798314 c 1.25428,-3.494039 2.28047,-6.407249 2.28047,-6.473793 0,-0.06647 -0.23591,-0.120989 -0.52425,-0.120989 -0.78355,0 -19.97467,3.82005 -20.40724,4.062109 -0.25374,0.142003 1.74841,1.60663 6.25865,4.578416 3.64744,2.403286 7.24503,4.750973 7.99462,5.217076 l 1.36292,0.847457 0.37718,-0.878746 c 0.20746,-0.483296 1.4034,-3.737495 2.65765,-7.23153 z m 39.90102,1.105632 c 0.94018,-2.661067 1.77263,-5.008367 1.85009,-5.216233 0.4276,-1.150947 -0.80427,0.287097 -3.20965,3.746679 l -2.72158,3.913904 0.98098,1.196964 c 0.53936,0.658341 1.07294,1.196979 1.18539,1.196979 0.1128,0 0.97427,-2.177233 1.91477,-4.838293 z m -5.70448,-0.962597 c 3.02092,-4.218121 10.08208,-14.712804 9.97285,-14.821981 -0.0791,-0.07895 -4.72762,0.726407 -10.33027,1.789689 -5.60294,1.063245 -10.27314,1.933203 -10.37846,1.933203 -0.48525,0 -0.0314,0.677085 2.03807,3.041085 3.25861,3.722257 7.88403,8.681192 8.08828,8.671302 0.0972,-0.0053 0.37143,-0.280697 0.60953,-0.613298 z"
       id="path6" />
    <path
       style="opacity:0;fill:#ffffff;fill-opacity:0;stroke-width:0.0681356"
       d="m -164.93987,81.986233 c -0.36194,-0.168856 -0.37258,-0.180253 -5.42086,-5.832729 -3.88047,-4.344886 -4.40216,-4.903863 -4.55743,-4.884085 -0.0964,0.01142 -6.32372,1.218159 -13.83843,2.680217 -10.41986,2.026881 -13.74728,2.651209 -14.01783,2.629932 -0.47926,-0.03624 -0.943,-0.330323 -1.21081,-0.763133 -0.18272,-0.295657 -0.20604,-0.392737 -0.20447,-0.850074 9e-4,-0.510433 0.0566,-0.66866 4.61684,-13.322978 2.53827,-7.043462 4.61507,-12.844212 4.61507,-12.890507 0,-0.04614 -4.17031,-4.740291 -9.26733,-10.431099 -5.09704,-5.690809 -9.3212,-10.454244 -9.387,-10.585413 -0.0804,-0.160222 -0.11966,-0.396851 -0.11966,-0.72089 0,-0.417956 0.0275,-0.52687 0.20623,-0.81593 0.12674,-0.204992 0.33295,-0.411903 0.53493,-0.536788 0.30673,-0.189633 1.26338,-0.383606 14.3269,-2.904849 7.69904,-1.485906 14.01372,-2.717111 14.03264,-2.736032 0.0189,-0.01895 1.09259,-2.940025 2.38594,-6.491348 1.29338,-3.551346 2.39585,-6.5425592 2.44992,-6.6471592 0.14905,-0.2881855 0.61624,-0.6545273 0.95611,-0.7496827 0.38342,-0.1073534 0.89353,-0.060085 1.23342,0.1142607 0.18611,0.095463 1.61554,1.6497438 4.87088,5.2962722 2.53411,2.83865 4.6365,5.190179 4.67197,5.22566 0.0405,0.04049 5.20826,-0.935718 13.92798,-2.631337 10.77075,-2.094439 13.94984,-2.690385 14.2502,-2.671362 0.80151,0.05105 1.42202,0.684542 1.47454,1.505939 0.0252,0.410111 -0.07,0.683176 -4.68475,13.362233 -2.59129,7.118946 -4.70266,12.983657 -4.69189,13.032702 0.0102,0.04877 4.15928,4.690336 9.21896,10.314 5.65836,6.288817 9.27199,10.357798 9.38709,10.570379 0.47037,0.867281 0.0152,1.998267 -0.9255,2.300332 -0.11876,0.03775 -6.42576,1.253762 -14.01539,2.701548 -7.58948,1.447751 -13.80507,2.637759 -13.81215,2.644552 -0.007,0.0071 -1.08872,2.981139 -2.40371,6.609731 -1.31478,3.628959 -2.43336,6.679295 -2.48554,6.778937 -0.13905,0.265596 -0.51287,0.601979 -0.80287,0.722791 -0.34691,0.144758 -0.97645,0.133253 -1.314,-0.02392 z m -2.43584,-8.132615 c -0.0195,-0.234331 -0.16727,-1.139027 -0.32851,-2.010316 -0.26632,-1.43937 -0.30565,-1.584512 -0.42904,-1.584512 -0.21177,0 -2.17084,0.412354 -2.30792,0.485683 -0.0906,0.04722 -0.10583,0.09547 -0.0585,0.181736 0.20595,0.37585 2.95179,3.353294 3.09253,3.353294 0.0403,0 0.053,-0.168687 0.0314,-0.425885 z m 3.9308,-0.627487 c 0.26161,-0.553123 1.46932,-3.892895 1.46932,-4.063198 0,-0.103157 -0.32217,-0.07024 -1.39693,0.143009 -0.56222,0.111565 -1.02986,0.203013 -1.03922,0.20312 -0.0643,4.91e-4 0.006,0.93938 0.12073,1.610271 0.14156,0.828117 0.46502,2.336586 0.52054,2.427508 0.0715,0.117116 0.15926,0.03034 0.32556,-0.32071 z m -33.39241,-0.9941 c 12.65771,-2.419895 26.43316,-5.17013 26.56676,-5.303544 0.0724,-0.07238 -2.08611,-2.536137 -11.76934,-13.433276 -5.83264,-6.563803 -7.54342,-8.458359 -7.61609,-8.434136 -0.0914,0.03026 -0.23277,0.382651 -1.34734,3.35731 -1.48995,3.976587 -8.63973,23.724554 -8.77704,24.24261 -0.0174,0.06587 -0.007,0.119374 0.0216,0.119374 0.0293,0 1.34395,-0.246925 2.92113,-0.548338 z m 35.23657,-6.848758 c 0.71214,-0.126399 3.57923,-0.673328 6.37142,-1.21558 2.79252,-0.542367 8.66493,-1.679413 13.05012,-2.527256 4.38513,-0.847672 8.02998,-1.564198 8.10011,-1.592143 0.13129,-0.05302 -0.38403,-0.635234 -11.67088,-13.195285 -5.92134,-6.589111 -8.1138,-8.928342 -8.24118,-8.792675 -0.10603,0.112807 -1.60742,4.288536 -7.49846,20.852431 -1.30633,3.672951 -2.36025,6.704464 -2.34209,6.736256 0.0461,0.08202 0.73033,5e-4 2.23096,-0.265748 z m -8.09895,-3.625433 c -0.0182,-0.06551 -0.053,-0.272603 -0.0773,-0.460087 -0.1256,-0.9642 -0.92594,-4.736408 -1.04235,-4.912592 -0.0469,-0.07122 -6.86891,-4.551853 -8.17502,-5.369394 -0.34644,-0.216865 -0.66308,-0.383231 -0.70365,-0.369709 -0.0996,0.03329 1.46092,1.840041 5.52124,6.392679 2.57011,2.881739 4.36627,4.838344 4.4417,4.838344 0.0376,0 0.0536,-0.0548 0.0354,-0.119241 z m 4.89733,-3.969456 c 2.35835,-6.596996 3.8023,-10.76817 3.74688,-10.82364 -0.018,-0.01785 -0.10173,0.05418 -0.1865,0.159636 -0.36174,0.449965 -2.9092,4.128664 -4.32662,6.24793 l -1.53581,2.296272 0.009,0.41264 c 0.0147,0.647087 0.80188,4.974774 0.94852,5.214193 0.0554,0.09063 0.0927,-0.0062 1.3442,-3.507031 z m -4.12337,-5.864922 c 2.46775,-3.446117 10.22122,-14.704037 10.22122,-14.841084 0,-0.07271 0.14346,-0.09805 -4.42948,0.781491 -9.56918,1.840444 -22.04379,4.29518 -22.24453,4.377202 -0.11239,0.04588 -0.0533,0.113119 0.40886,0.463942 1.22022,0.926491 4.61868,3.20975 10.93243,7.344947 4.30295,2.818218 4.31746,2.827483 4.39155,2.80691 0.0354,-0.0098 0.35936,-0.429856 0.71995,-0.933408 z m -24.51479,-7.338217 c 0.27682,-0.627042 0.72482,-1.893227 0.76998,-2.176201 0.0485,-0.304314 0.19063,-0.178442 -1.53765,-1.362533 -2.34381,-1.605774 -6.83517,-4.519437 -6.96667,-4.519437 -0.0312,0 -0.0279,0.05366 0.008,0.119246 0.21832,0.400313 7.36055,8.330751 7.50274,8.330751 0.0279,0 0.1285,-0.176327 0.22363,-0.391826 z m 7.75046,-5.879067 c 5.20677,-0.985798 27.14958,-5.348914 27.2677,-5.421952 0.10709,-0.06607 0.0612,-0.177492 -0.25697,-0.623333 -0.80933,-1.13413 -6.47675,-7.552451 -15.32251,-17.352632 -1.68732,-1.869374 -3.17974,-3.525307 -3.31649,-3.679842 -0.13677,-0.154538 -0.27039,-0.25975 -0.29699,-0.233871 -0.19023,0.185447 -9.91466,27.112469 -9.91466,27.453798 0,0.129331 0.10747,0.191052 0.27259,0.156566 0.056,-0.01162 0.76153,-0.146177 1.56733,-0.298734 z m -4.15891,-4.019013 c 1.80196,-4.965095 3.75006,-10.475137 3.75006,-10.60681 0,-0.06476 -0.47486,0.005 -2.18786,0.318557 -6.32755,1.160584 -18.72423,3.646979 -18.85999,3.782729 -0.0479,0.04797 -0.48975,-0.255484 3.46676,2.384247 4.70358,3.138149 9.77083,6.434561 11.65245,7.580272 l 0.71554,0.43569 0.14413,-0.328893 c 0.0792,-0.180899 0.67279,-1.785502 1.31891,-3.565792 z m 39.93383,1.005124 c 1.24781,-3.326326 3.36999,-9.448668 3.29929,-9.518529 -0.0216,-0.02114 -0.11391,0.05329 -0.20524,0.165627 -0.56507,0.696577 -5.47777,7.744659 -5.47777,7.858975 0,0.125529 1.9373,2.260562 2.05116,2.260562 0.0246,0 0.17425,-0.344975 0.33256,-0.766635 z m -4.44143,-4.77016 c 0.38177,-0.518482 4.21731,-6.06381 6.63424,-9.591422 2.49517,-3.642616 3.60074,-5.291693 3.60074,-5.371941 0,-0.09303 -2.14209,0.299076 -12.40242,2.270031 -3.39183,0.651573 -6.51968,1.24908 -6.95074,1.32781 -1.34263,0.24526 -1.49918,0.282491 -1.49918,0.356567 0,0.234042 7.26088,8.37908 9.60128,10.77046 0.32103,0.327943 0.62155,0.596267 0.66791,0.596267 0.0463,0 0.20327,-0.161007 0.34817,-0.357772 z"
       id="path7" />
    <path
       style="opacity:0;fill:#ffffff;fill-opacity:1;stroke-width:0.141643"
       d="m -164.83462,81.963599 c -0.26674,-0.116242 -2.24541,-2.213329 -5.1399,-5.448061 -2.76724,-3.092588 -4.80635,-5.258391 -4.94928,-5.256231 -0.1337,8.92e-4 -6.4263,1.206038 -13.98355,2.676164 -12.14283,2.362497 -13.79656,2.654477 -14.22305,2.511245 -0.608,-0.203745 -1.02931,-0.762232 -1.04305,-1.382222 -0.006,-0.294193 1.78118,-5.457799 4.62421,-13.356662 2.54914,-7.082287 4.60794,-12.946906 4.57513,-13.032409 -0.0328,-0.0855 -4.23989,-4.822761 -9.34899,-10.527296 -7.38219,-8.242542 -9.30789,-10.471078 -9.37992,-10.855013 -0.1058,-0.563952 0.1943,-1.252761 0.68621,-1.575075 0.1765,-0.115646 6.62944,-1.428541 14.3399,-2.917531 7.71042,-1.488996 14.04196,-2.730069 14.07006,-2.757947 0.028,-0.02789 1.12469,-3.002499 2.43687,-6.610286 2.03287,-5.5893051 2.44996,-6.6172083 2.8197,-6.9491452 0.47042,-0.4223066 1.02623,-0.4988332 1.62887,-0.2242551 0.27694,0.126183 8.75068,9.4241103 9.5034,10.4277223 0.12548,0.16731 2.37548,-0.232812 14.0948,-2.506566 7.67026,-1.488132 14.06022,-2.705178 14.2008,-2.704554 0.71557,0.0025 1.51559,0.829927 1.51559,1.566153 0,0.167349 -2.04732,5.923585 -4.54938,12.791644 -2.50202,6.868069 -4.63522,12.727484 -4.73997,13.020927 l -0.1906,0.533526 8.24605,9.172757 c 4.53525,5.045016 8.77186,9.760646 9.41463,10.479171 1.10409,1.233974 1.16864,1.3423 1.16864,1.955908 0,0.52649 -0.0769,0.726692 -0.40688,1.056309 -0.22363,0.223862 -0.55816,0.444494 -0.74352,0.49045 -0.18511,0.04677 -6.48144,1.256724 -13.99144,2.690552 -7.51005,1.433934 -13.70075,2.658501 -13.75729,2.721415 -0.0567,0.06328 -1.17131,3.078728 -2.47768,6.701671 -1.30642,3.62263 -2.47837,6.707302 -2.60437,6.854354 -0.21476,0.250897 -1.00552,0.6601 -1.25149,0.647971 -0.0611,-0.0018 -0.30597,-0.0905 -0.5445,-0.194686 z m -2.76761,-9.734674 c -0.21611,-1.237312 -0.39052,-1.878277 -0.52515,-1.92982 -0.19601,-0.07533 -2.26748,0.316667 -2.40598,0.455204 -0.10699,0.107067 0.57722,0.947234 1.92143,2.359667 0.6744,0.708877 1.25029,1.216401 1.27972,1.128041 0.0293,-0.08845 -0.0921,-0.99435 -0.27002,-2.013092 z m 4.87169,-0.73783 c 0.94588,-2.590536 0.91793,-2.362202 0.28693,-2.346333 -0.29737,0.008 -0.85946,0.08738 -1.24901,0.177433 -0.6264,0.144901 -0.71363,0.210296 -0.75444,0.566582 -0.0438,0.382383 0.49275,3.419439 0.65191,3.69081 0.13535,0.230467 0.42647,-0.340702 1.06461,-2.088492 z m -29.93033,-0.0266 c 8.66802,-1.669784 21.93095,-4.315594 22.28014,-4.44476 0.30503,-0.113011 0.93723,0.646811 -5.84551,-7.024888 -10.36502,-11.723892 -13.26351,-14.945414 -13.44633,-14.945414 -0.15758,0 -2.39642,6.02322 -7.26632,19.548605 -2.82873,7.856692 -2.95272,8.216209 -2.83184,8.216209 0.0542,0 3.25362,-0.607763 7.10986,-1.350547 z m 30.54336,-5.950176 c 2.08686,-0.361266 27.58248,-5.310104 27.91605,-5.418599 0.28233,-0.0918 0.15643,-0.271514 -1.41644,-2.020358 -0.94961,-1.055933 -4.76093,-5.296608 -8.46971,-9.423835 -7.58227,-8.437818 -9.75047,-10.750494 -9.92015,-10.580935 -0.0641,0.06417 -0.50714,1.198632 -0.98434,2.520978 -1.62516,4.502989 -8.913,25.003647 -8.913,25.072112 0,0.116724 0.48301,0.07622 1.78759,-0.149667 z m -8.08503,-6.652823 c -0.27618,-1.320406 -0.50213,-2.420564 -0.50213,-2.444796 0,-0.04534 -4.5278,-3.028095 -7.34201,-4.836184 -1.61529,-1.037824 -2.07456,-1.190972 -1.42028,-0.473643 0.19465,0.213437 1.30402,1.471759 2.46525,2.796253 1.1612,1.324502 3.26026,3.681555 4.66454,5.237818 2.20854,2.447528 2.55891,2.78175 2.59502,2.47533 0.023,-0.194677 -0.18422,-1.434408 -0.46039,-2.754778 z m 5.24439,-0.518163 c 2.23613,-6.240977 3.89554,-11.084551 3.85697,-11.258254 -0.0473,-0.215249 -1.45383,1.731163 -4.18899,5.798537 l -1.90111,2.827063 0.0963,0.796112 c 0.11426,0.944574 0.59512,3.538019 0.80313,4.331391 0.18767,0.716017 0.17422,0.741177 1.3337,-2.494849 z m -3.7747,-6.603091 c 5.56667,-7.941946 10.12291,-14.61695 10.03652,-14.703467 -0.0593,-0.05919 -5.92617,1.05931 -17.95797,3.423658 -9.88338,1.942155 -9.04613,1.735652 -8.55995,2.111422 1.79717,1.38905 15.18691,10.249927 15.50117,10.258156 0.11686,0.0018 0.55797,-0.487335 0.98023,-1.089769 z m -24.27925,-8.152519 c 0.22016,-0.648435 0.35858,-1.287704 0.3076,-1.420582 -0.0876,-0.228307 -8.08706,-5.617158 -8.33839,-5.617158 -0.26697,0 -0.0281,0.313209 1.90088,2.492878 4.11183,4.646047 5.39767,5.999334 5.56691,5.858887 0.0895,-0.07426 0.34284,-0.665599 0.563,-1.314025 z m 14.51624,-6.255292 c 17.01585,-3.339665 20.04086,-3.971071 20.08346,-4.191888 0.0626,-0.324524 -1.08422,-1.675212 -8.10946,-9.552229 -7.93579,-8.897892 -11.0221,-12.270019 -11.12797,-12.158444 -0.12057,0.127106 -2.18283,5.726446 -5.54759,15.062428 -3.39091,9.408609 -4.36451,12.17711 -4.36451,12.410839 0,0.164493 0.0972,0.1988 0.38956,0.137485 0.21425,-0.04502 4.11869,-0.813628 8.67651,-1.708191 z m -11.73047,-1.500299 c 1.73026,-4.699552 4.08097,-11.397158 4.08097,-11.627287 0,-0.200106 -0.21767,-0.186655 -1.94778,0.12039 -1.50273,0.266677 -17.11617,3.347339 -18.69879,3.689424 -0.17531,0.03774 -0.31874,0.124517 -0.31874,0.192509 0,0.299189 15.47407,10.38572 15.77778,10.284487 0.0799,-0.02664 0.57785,-1.223417 1.10656,-2.659523 z m 40.84369,-1.48923 c 1.38452,-3.784226 2.75973,-7.804708 2.75973,-8.068869 0,-0.161849 -0.32358,0.175559 -0.82659,0.861469 -1.58216,2.158054 -4.83964,6.916484 -4.83815,7.067136 0.002,0.241347 1.85801,2.223296 2.0284,2.166527 0.0844,-0.02816 0.47905,-0.940028 0.87661,-2.026263 z m -3.92759,-4.840387 c 4.42694,-6.327301 9.28415,-13.49312 9.20209,-13.575265 -0.0992,-0.09913 -20.15905,3.665352 -20.70355,3.885275 -0.23576,0.09522 -0.10423,0.300818 1.06131,1.658921 3.36939,3.926083 8.81081,9.837218 9.05565,9.837218 0.0667,0 0.68962,-0.812766 1.3845,-1.806149 z"
       id="path9" />
    <path
       style="opacity:0;fill:#ffffff;fill-opacity:1;stroke-width:0.141643"
       d="m -164.83462,81.963599 c -0.26674,-0.116242 -2.24541,-2.213329 -5.1399,-5.448061 -2.76724,-3.092588 -4.80635,-5.258391 -4.94928,-5.256231 -0.1337,8.92e-4 -6.4263,1.206038 -13.98355,2.676164 -12.14283,2.362497 -13.79656,2.654477 -14.22305,2.511245 -0.608,-0.203745 -1.02931,-0.762232 -1.04305,-1.382222 -0.006,-0.294193 1.78118,-5.457799 4.62421,-13.356662 2.54914,-7.082287 4.60794,-12.946906 4.57513,-13.032409 -0.0328,-0.0855 -4.23989,-4.822761 -9.34899,-10.527296 -7.38219,-8.242542 -9.30789,-10.471078 -9.37992,-10.855013 -0.1058,-0.563952 0.1943,-1.252761 0.68621,-1.575075 0.1765,-0.115646 6.62944,-1.428541 14.3399,-2.917531 7.71042,-1.488996 14.04196,-2.730069 14.07006,-2.757947 0.028,-0.02789 1.12469,-3.002499 2.43687,-6.610286 2.03287,-5.5893051 2.44996,-6.6172083 2.8197,-6.9491452 0.47042,-0.4223066 1.02623,-0.4988332 1.62887,-0.2242551 0.27694,0.126183 8.75068,9.4241103 9.5034,10.4277223 0.12548,0.16731 2.37548,-0.232812 14.0948,-2.506566 7.67026,-1.488132 14.06022,-2.705178 14.2008,-2.704554 0.71557,0.0025 1.51559,0.829927 1.51559,1.566153 0,0.167349 -2.04732,5.923585 -4.54938,12.791644 -2.50202,6.868069 -4.63522,12.727484 -4.73997,13.020927 l -0.1906,0.533526 8.24605,9.172757 c 4.53525,5.045016 8.77186,9.760646 9.41463,10.479171 1.10409,1.233974 1.16864,1.3423 1.16864,1.955908 0,0.52649 -0.0769,0.726692 -0.40688,1.056309 -0.22363,0.223862 -0.55816,0.444494 -0.74352,0.49045 -0.18511,0.04677 -6.48144,1.256724 -13.99144,2.690552 -7.51005,1.433934 -13.70075,2.658501 -13.75729,2.721415 -0.0567,0.06328 -1.17131,3.078728 -2.47768,6.701671 -1.30642,3.62263 -2.47837,6.707302 -2.60437,6.854354 -0.21476,0.250897 -1.00552,0.6601 -1.25149,0.647971 -0.0611,-0.0018 -0.30597,-0.0905 -0.5445,-0.194686 z m -2.76761,-9.734674 c -0.21611,-1.237312 -0.39052,-1.878277 -0.52515,-1.92982 -0.19601,-0.07533 -2.26748,0.316667 -2.40598,0.455204 -0.10699,0.107067 0.57722,0.947234 1.92143,2.359667 0.6744,0.708877 1.25029,1.216401 1.27972,1.128041 0.0293,-0.08845 -0.0921,-0.99435 -0.27002,-2.013092 z m 4.87169,-0.73783 c 0.94588,-2.590536 0.91793,-2.362202 0.28693,-2.346333 -0.29737,0.008 -0.85946,0.08738 -1.24901,0.177433 -0.6264,0.144901 -0.71363,0.210296 -0.75444,0.566582 -0.0438,0.382383 0.49275,3.419439 0.65191,3.69081 0.13535,0.230467 0.42647,-0.340702 1.06461,-2.088492 z m -29.93033,-0.0266 c 8.66802,-1.669784 21.93095,-4.315594 22.28014,-4.44476 0.30503,-0.113011 0.93723,0.646811 -5.84551,-7.024888 -10.36502,-11.723892 -13.26351,-14.945414 -13.44633,-14.945414 -0.15758,0 -2.39642,6.02322 -7.26632,19.548605 -2.82873,7.856692 -2.95272,8.216209 -2.83184,8.216209 0.0542,0 3.25362,-0.607763 7.10986,-1.350547 z m 30.54336,-5.950176 c 2.08686,-0.361266 27.58248,-5.310104 27.91605,-5.418599 0.28233,-0.0918 0.15643,-0.271514 -1.41644,-2.020358 -0.94961,-1.055933 -4.76093,-5.296608 -8.46971,-9.423835 -7.58227,-8.437818 -9.75047,-10.750494 -9.92015,-10.580935 -0.0641,0.06417 -0.50714,1.198632 -0.98434,2.520978 -1.62516,4.502989 -8.913,25.003647 -8.913,25.072112 0,0.116724 0.48301,0.07622 1.78759,-0.149667 z m -8.08503,-6.652823 c -0.27618,-1.320406 -0.50213,-2.420564 -0.50213,-2.444796 0,-0.04534 -4.5278,-3.028095 -7.34201,-4.836184 -1.61529,-1.037824 -2.07456,-1.190972 -1.42028,-0.473643 0.19465,0.213437 1.30402,1.471759 2.46525,2.796253 1.1612,1.324502 3.26026,3.681555 4.66454,5.237818 2.20854,2.447528 2.55891,2.78175 2.59502,2.47533 0.023,-0.194677 -0.18422,-1.434408 -0.46039,-2.754778 z m 5.24439,-0.518163 c 2.23613,-6.240977 3.89554,-11.084551 3.85697,-11.258254 -0.0473,-0.215249 -1.45383,1.731163 -4.18899,5.798537 l -1.90111,2.827063 0.0963,0.796112 c 0.11426,0.944574 0.59512,3.538019 0.80313,4.331391 0.18767,0.716017 0.17422,0.741177 1.3337,-2.494849 z m -3.7747,-6.603091 c 5.56667,-7.941946 10.12291,-14.61695 10.03652,-14.703467 -0.0593,-0.05919 -5.92617,1.05931 -17.95797,3.423658 -9.88338,1.942155 -9.04613,1.735652 -8.55995,2.111422 1.79717,1.38905 15.18691,10.249927 15.50117,10.258156 0.11686,0.0018 0.55797,-0.487335 0.98023,-1.089769 z m -24.27925,-8.152519 c 0.22016,-0.648435 0.35858,-1.287704 0.3076,-1.420582 -0.0876,-0.228307 -8.08706,-5.617158 -8.33839,-5.617158 -0.26697,0 -0.0281,0.313209 1.90088,2.492878 4.11183,4.646047 5.39767,5.999334 5.56691,5.858887 0.0895,-0.07426 0.34284,-0.665599 0.563,-1.314025 z m 14.51624,-6.255292 c 17.01585,-3.339665 20.04086,-3.971071 20.08346,-4.191888 0.0626,-0.324524 -1.08422,-1.675212 -8.10946,-9.552229 -7.93579,-8.897892 -11.0221,-12.270019 -11.12797,-12.158444 -0.12057,0.127106 -2.18283,5.726446 -5.54759,15.062428 -3.39091,9.408609 -4.36451,12.17711 -4.36451,12.410839 0,0.164493 0.0972,0.1988 0.38956,0.137485 0.21425,-0.04502 4.11869,-0.813628 8.67651,-1.708191 z m -11.73047,-1.500299 c 1.73026,-4.699552 4.08097,-11.397158 4.08097,-11.627287 0,-0.200106 -0.21767,-0.186655 -1.94778,0.12039 -1.50273,0.266677 -17.11617,3.347339 -18.69879,3.689424 -0.17531,0.03774 -0.31874,0.124517 -0.31874,0.192509 0,0.299189 15.47407,10.38572 15.77778,10.284487 0.0799,-0.02664 0.57785,-1.223417 1.10656,-2.659523 z m 40.84369,-1.48923 c 1.38452,-3.784226 2.75973,-7.804708 2.75973,-8.068869 0,-0.161849 -0.32358,0.175559 -0.82659,0.861469 -1.58216,2.158054 -4.83964,6.916484 -4.83815,7.067136 0.002,0.241347 1.85801,2.223296 2.0284,2.166527 0.0844,-0.02816 0.47905,-0.940028 0.87661,-2.026263 z m -3.92759,-4.840387 c 4.42694,-6.327301 9.28415,-13.49312 9.20209,-13.575265 -0.0992,-0.09913 -20.15905,3.665352 -20.70355,3.885275 -0.23576,0.09522 -0.10423,0.300818 1.06131,1.658921 3.36939,3.926083 8.81081,9.837218 9.05565,9.837218 0.0667,0 0.68962,-0.812766 1.3845,-1.806149 z"
       id="path10" />
    <path
       style="opacity:0;fill:#ffffff;fill-opacity:1;stroke-width:0.141643"
       d="m -164.83462,81.963599 c -0.26674,-0.116242 -2.24541,-2.213329 -5.1399,-5.448061 -2.76724,-3.092588 -4.80635,-5.258391 -4.94928,-5.256231 -0.1337,8.92e-4 -6.4263,1.206038 -13.98355,2.676164 -12.14283,2.362497 -13.79656,2.654477 -14.22305,2.511245 -0.608,-0.203745 -1.02931,-0.762232 -1.04305,-1.382222 -0.006,-0.294193 1.78118,-5.457799 4.62421,-13.356662 2.54914,-7.082287 4.60794,-12.946906 4.57513,-13.032409 -0.0328,-0.0855 -4.23989,-4.822761 -9.34899,-10.527296 -7.38219,-8.242542 -9.30789,-10.471078 -9.37992,-10.855013 -0.1058,-0.563952 0.1943,-1.252761 0.68621,-1.575075 0.1765,-0.115646 6.62944,-1.428541 14.3399,-2.917531 7.71042,-1.488996 14.04196,-2.730069 14.07006,-2.757947 0.028,-0.02789 1.12469,-3.002499 2.43687,-6.610286 2.03287,-5.5893051 2.44996,-6.6172083 2.8197,-6.9491452 0.47042,-0.4223066 1.02623,-0.4988332 1.62887,-0.2242551 0.27694,0.126183 8.75068,9.4241103 9.5034,10.4277223 0.12548,0.16731 2.37548,-0.232812 14.0948,-2.506566 7.67026,-1.488132 14.06022,-2.705178 14.2008,-2.704554 0.71557,0.0025 1.51559,0.829927 1.51559,1.566153 0,0.167349 -2.04732,5.923585 -4.54938,12.791644 -2.50202,6.868069 -4.63522,12.727484 -4.73997,13.020927 l -0.1906,0.533526 8.24605,9.172757 c 4.53525,5.045016 8.77186,9.760646 9.41463,10.479171 1.10409,1.233974 1.16864,1.3423 1.16864,1.955908 0,0.52649 -0.0769,0.726692 -0.40688,1.056309 -0.22363,0.223862 -0.55816,0.444494 -0.74352,0.49045 -0.18511,0.04677 -6.48144,1.256724 -13.99144,2.690552 -7.51005,1.433934 -13.70075,2.658501 -13.75729,2.721415 -0.0567,0.06328 -1.17131,3.078728 -2.47768,6.701671 -1.30642,3.62263 -2.47837,6.707302 -2.60437,6.854354 -0.21476,0.250897 -1.00552,0.6601 -1.25149,0.647971 -0.0611,-0.0018 -0.30597,-0.0905 -0.5445,-0.194686 z m -2.76761,-9.734674 c -0.21611,-1.237312 -0.39052,-1.878277 -0.52515,-1.92982 -0.19601,-0.07533 -2.26748,0.316667 -2.40598,0.455204 -0.10699,0.107067 0.57722,0.947234 1.92143,2.359667 0.6744,0.708877 1.25029,1.216401 1.27972,1.128041 0.0293,-0.08845 -0.0921,-0.99435 -0.27002,-2.013092 z m 4.87169,-0.73783 c 0.94588,-2.590536 0.91793,-2.362202 0.28693,-2.346333 -0.29737,0.008 -0.85946,0.08738 -1.24901,0.177433 -0.6264,0.144901 -0.71363,0.210296 -0.75444,0.566582 -0.0438,0.382383 0.49275,3.419439 0.65191,3.69081 0.13535,0.230467 0.42647,-0.340702 1.06461,-2.088492 z m -29.93033,-0.0266 c 8.66802,-1.669784 21.93095,-4.315594 22.28014,-4.44476 0.30503,-0.113011 0.93723,0.646811 -5.84551,-7.024888 -10.36502,-11.723892 -13.26351,-14.945414 -13.44633,-14.945414 -0.15758,0 -2.39642,6.02322 -7.26632,19.548605 -2.82873,7.856692 -2.95272,8.216209 -2.83184,8.216209 0.0542,0 3.25362,-0.607763 7.10986,-1.350547 z m 30.54336,-5.950176 c 2.08686,-0.361266 27.58248,-5.310104 27.91605,-5.418599 0.28233,-0.0918 0.15643,-0.271514 -1.41644,-2.020358 -0.94961,-1.055933 -4.76093,-5.296608 -8.46971,-9.423835 -7.58227,-8.437818 -9.75047,-10.750494 -9.92015,-10.580935 -0.0641,0.06417 -0.50714,1.198632 -0.98434,2.520978 -1.62516,4.502989 -8.913,25.003647 -8.913,25.072112 0,0.116724 0.48301,0.07622 1.78759,-0.149667 z m -8.08503,-6.652823 c -0.27618,-1.320406 -0.50213,-2.420564 -0.50213,-2.444796 0,-0.04534 -4.5278,-3.028095 -7.34201,-4.836184 -1.61529,-1.037824 -2.07456,-1.190972 -1.42028,-0.473643 0.19465,0.213437 1.30402,1.471759 2.46525,2.796253 1.1612,1.324502 3.26026,3.681555 4.66454,5.237818 2.20854,2.447528 2.55891,2.78175 2.59502,2.47533 0.023,-0.194677 -0.18422,-1.434408 -0.46039,-2.754778 z m 5.24439,-0.518163 c 2.23613,-6.240977 3.89554,-11.084551 3.85697,-11.258254 -0.0473,-0.215249 -1.45383,1.731163 -4.18899,5.798537 l -1.90111,2.827063 0.0963,0.796112 c 0.11426,0.944574 0.59512,3.538019 0.80313,4.331391 0.18767,0.716017 0.17422,0.741177 1.3337,-2.494849 z m -3.7747,-6.603091 c 5.56667,-7.941946 10.12291,-14.61695 10.03652,-14.703467 -0.0593,-0.05919 -5.92617,1.05931 -17.95797,3.423658 -9.88338,1.942155 -9.04613,1.735652 -8.55995,2.111422 1.79717,1.38905 15.18691,10.249927 15.50117,10.258156 0.11686,0.0018 0.55797,-0.487335 0.98023,-1.089769 z m -24.27925,-8.152519 c 0.22016,-0.648435 0.35858,-1.287704 0.3076,-1.420582 -0.0876,-0.228307 -8.08706,-5.617158 -8.33839,-5.617158 -0.26697,0 -0.0281,0.313209 1.90088,2.492878 4.11183,4.646047 5.39767,5.999334 5.56691,5.858887 0.0895,-0.07426 0.34284,-0.665599 0.563,-1.314025 z m 14.51624,-6.255292 c 17.01585,-3.339665 20.04086,-3.971071 20.08346,-4.191888 0.0626,-0.324524 -1.08422,-1.675212 -8.10946,-9.552229 -7.93579,-8.897892 -11.0221,-12.270019 -11.12797,-12.158444 -0.12057,0.127106 -2.18283,5.726446 -5.54759,15.062428 -3.39091,9.408609 -4.36451,12.17711 -4.36451,12.410839 0,0.164493 0.0972,0.1988 0.38956,0.137485 0.21425,-0.04502 4.11869,-0.813628 8.67651,-1.708191 z m -11.73047,-1.500299 c 1.73026,-4.699552 4.08097,-11.397158 4.08097,-11.627287 0,-0.200106 -0.21767,-0.186655 -1.94778,0.12039 -1.50273,0.266677 -17.11617,3.347339 -18.69879,3.689424 -0.17531,0.03774 -0.31874,0.124517 -0.31874,0.192509 0,0.299189 15.47407,10.38572 15.77778,10.284487 0.0799,-0.02664 0.57785,-1.223417 1.10656,-2.659523 z m 40.84369,-1.48923 c 1.38452,-3.784226 2.75973,-7.804708 2.75973,-8.068869 0,-0.161849 -0.32358,0.175559 -0.82659,0.861469 -1.58216,2.158054 -4.83964,6.916484 -4.83815,7.067136 0.002,0.241347 1.85801,2.223296 2.0284,2.166527 0.0844,-0.02816 0.47905,-0.940028 0.87661,-2.026263 z m -3.92759,-4.840387 c 4.42694,-6.327301 9.28415,-13.49312 9.20209,-13.575265 -0.0992,-0.09913 -20.15905,3.665352 -20.70355,3.885275 -0.23576,0.09522 -0.10423,0.300818 1.06131,1.658921 3.36939,3.926083 8.81081,9.837218 9.05565,9.837218 0.0667,0 0.68962,-0.812766 1.3845,-1.806149 z"
       id="path11" />
    <path
       d="m -178.37778,6.097945 c -0.35131,-0.0075 -0.67832,0.1210741 -0.97231,0.385017 -0.36975,0.331936 -0.78708,1.3601722 -2.81995,6.949493 -1.31218,3.607768 -2.40877,6.582343 -2.43687,6.610237 -0.028,0.02794 -6.35953,1.268724 -14.06994,2.757724 -7.71046,1.488972 -14.16344,2.802097 -14.33993,2.917737 -0.49192,0.32233 -0.79211,1.010958 -0.68631,1.574899 0.072,0.383933 1.99791,2.612679 9.38009,10.855217 5.1091,5.704527 9.31595,10.441829 9.34881,10.527314 0.033,0.0855 -2.02606,5.949891 -4.57521,13.032177 -2.84303,7.898882 -4.63064,13.062648 -4.62412,13.356823 0.0137,0.620017 0.43513,1.178486 1.04313,1.382177 0.42651,0.143241 2.08009,-0.148497 14.22295,-2.511164 7.55725,-1.470135 13.84977,-2.674379 13.98347,-2.676146 0.14294,-8.93e-4 2.18202,2.163437 4.94927,5.255936 2.89449,3.234821 4.87347,5.332167 5.14021,5.448561 0.23853,0.103988 0.48333,0.190857 0.54427,0.194097 0.24596,0.01178 1.03693,-0.396673 1.2517,-0.647685 0.12597,-0.147052 1.29794,-3.231447 2.60435,-6.854248 1.30638,-3.622907 2.42116,-6.638792 2.4775,-6.701858 0.0568,-0.06328 6.24741,-1.287445 13.75745,-2.72137 7.50999,-1.433837 13.80604,-2.644373 13.99112,-2.690454 0.18533,-0.04596 0.52014,-0.2669 0.74375,-0.490718 0.33001,-0.329653 0.40715,-0.529488 0.40715,-1.055933 0,-0.613627 -0.0654,-0.722042 -1.16877,-1.956007 -0.64287,-0.718525 -4.87961,-5.4342 -9.41484,-10.479225 l -8.24582,-9.172712 0.19064,-0.533703 c 0.10463,-0.293448 2.23768,-6.152867 4.73974,-13.02094 2.50206,-6.868062 4.54937,-12.624294 4.54937,-12.791645 0,-0.736227 -0.80018,-1.563176 -1.51561,-1.56629 -0.14057,-5.27e-4 -6.53062,1.216803 -14.2009,2.704913 -11.71933,2.273777 -13.969,2.673825 -14.09448,2.506543 -0.75272,-1.00364 -9.22641,-10.3017704 -9.50336,-10.4279515 -0.22597,-0.1029667 -0.44576,-0.1563172 -0.65655,-0.1608155 z m 0.72778,5.331923 c 0.10585,-0.111558 3.19255,3.260671 11.12833,12.158572 7.02521,7.87702 8.17173,9.227728 8.10923,9.55226 -0.0428,0.22082 -3.06765,0.852086 -20.08351,4.19176 -4.55783,0.894552 -8.46232,1.663361 -8.67657,1.70831 -0.29234,0.06134 -0.38933,0.02682 -0.38933,-0.137726 0,-0.233735 0.97339,-3.002322 4.36431,-12.410935 3.36476,-9.335977 5.42697,-14.935134 5.54754,-15.062241 z m 33.54194,4.497353 c 0.0821,0.08215 -4.77529,7.248084 -9.20224,13.57537 -0.69495,0.993387 -1.31772,1.806147 -1.38431,1.806147 -0.24491,0 -5.68624,-5.911417 -9.05564,-9.837504 -1.16554,-1.358101 -1.29731,-1.563404 -1.06155,-1.658625 0.54449,-0.219924 20.60462,-3.984514 20.70374,-3.885388 z m -42.19737,8.146787 c 0.12949,0.01073 0.16002,0.05566 0.16002,0.130704 0,0.230127 -2.3508,6.927623 -4.08103,11.627187 -0.52873,1.4361 -1.02662,2.633283 -1.10653,2.659909 -0.3037,0.101235 -15.77787,-9.985523 -15.77787,-10.284731 0,-0.068 0.14359,-0.154603 0.3189,-0.192497 1.58262,-0.342105 17.196,-3.422681 18.69874,-3.689359 1.08133,-0.191906 1.57192,-0.269132 1.78777,-0.251213 z m 39.65472,2.159863 c 0.0178,-6.59e-4 0.0268,0.01231 0.0268,0.04021 0,0.264172 -1.37539,4.284302 -2.75994,8.068532 -0.39753,1.086225 -0.79198,1.998212 -0.87645,2.026411 -0.17039,0.05669 -2.02606,-1.925154 -2.02846,-2.166494 -8.9e-4,-0.150648 3.25593,-4.909207 4.83817,-7.067253 0.41644,-0.568019 0.71018,-0.89709 0.79886,-0.901511 z m -54.3922,10.316035 c 0.2513,0 8.25089,5.388868 8.33851,5.617175 0.0512,0.132879 -0.0874,0.772291 -0.30755,1.420735 -0.22017,0.648426 -0.47354,1.239614 -0.56305,1.31389 -0.16924,0.140456 -1.45527,-1.212937 -5.5671,-5.858977 -1.92904,-2.179688 -2.16781,-2.492823 -1.90081,-2.492823 z m 42.34648,0.486735 c 0.0864,0.08652 -4.46969,6.761479 -10.03637,14.703434 -0.42224,0.602426 -0.86326,1.092768 -0.98013,1.089707 -0.31428,-0.008 -13.70409,-8.869071 -15.50125,-10.258121 -0.48619,-0.375787 -1.3234,-0.169177 8.55997,-2.111339 12.0318,-2.364341 17.89848,-3.482886 17.95778,-3.423681 z m 4.68848,1.033374 c 0.16972,-0.169569 2.33791,2.143279 9.92021,10.580917 3.70853,4.127235 7.52032,8.367732 8.46995,9.423559 1.57292,1.748754 1.69866,1.928722 1.41632,2.020455 -0.33356,0.108504 -25.8291,5.057235 -27.91597,5.418465 -1.30456,0.225853 -1.78775,0.266579 -1.78775,0.149899 0,-0.06855 7.28811,-20.56931 8.91338,-25.0723 0.47706,-1.322346 0.91971,-2.456818 0.98386,-2.520995 z m -35.66444,6.979216 c 0.1828,0 3.08124,3.22187 13.44624,14.945155 6.78276,7.671708 6.15035,6.911824 5.8453,7.024826 -0.34917,0.129023 -13.61211,2.774797 -22.28011,4.444331 -3.85624,0.742792 -7.05572,1.350662 -7.10992,1.350662 -0.12084,0 0.003,-0.359436 2.83207,-8.216129 4.8699,-13.525375 7.10884,-19.548845 7.26642,-19.548845 z m 28.57105,2.035816 c 0.0387,0.17372 -1.62067,5.017231 -3.85679,11.258218 -1.15948,3.236035 -1.14619,3.210669 -1.33387,2.494688 -0.208,-0.793345 -0.68865,-3.386782 -0.80291,-4.331347 l -0.0962,-0.79587 1.90083,-2.827349 c 2.73517,-4.067365 4.14127,-6.01359 4.18899,-5.79834 z m -18.60874,3.579405 c 0.15288,-0.0054 0.70425,0.299772 1.66332,0.915987 2.81421,1.808089 7.34193,4.790567 7.34193,4.836174 0,0.02455 0.22623,1.12431 0.50239,2.444725 0.27618,1.320397 0.48313,2.560226 0.46015,2.754885 -0.0361,0.306421 -0.38641,-0.02767 -2.59495,-2.475499 -1.40429,-1.556281 -3.5032,-3.913182 -4.66441,-5.237675 -1.16122,-1.324494 -2.27076,-2.583021 -2.46545,-2.79645 -0.26579,-0.291417 -0.34758,-0.439014 -0.24298,-0.442147 z"
       style="opacity:0;fill:#ffffff;stroke-width:0.535411"
       id="path13"
       inkscape:label="path13" />
    <text
       xml:space="preserve"
       style="font-size:95.5707px;writing-mode:lr-tb;direction:ltr;fill:#000000;stroke-width:0.238927"
       x="-173.35406"
       y="78.714226"
       id="text1"><tspan
         sodipodi:role="line"
         id="tspan1"
         style="font-size:95.5707px;stroke-width:0.238927"
         x="-173.35406"
         y="78.714226" /></text>
    <text
       xml:space="preserve"
       style="font-size:95.5707px;writing-mode:lr-tb;direction:ltr;fill:#000000;stroke-width:0.238927"
       x="-154.23775"
       y="120.32032"
       id="text2"><tspan
         sodipodi:role="line"
         id="tspan2"
         style="stroke-width:0.238927"
         x="-154.23775"
         y="120.32032" /></text>
    <text
       xml:space="preserve"
       style="font-size:65.0182px;writing-mode:lr-tb;direction:ltr;fill:#000000;stroke-width:0.238927"
       x="-116.63641"
       y="64.914406"
       id="text3"><tspan
         sodipodi:role="line"
         id="tspan3"
         style="font-style:normal;font-variant:normal;font-weight:normal;font-stretch:normal;font-size:65.0182px;font-family:'Adwaita Mono';-inkscape-font-specification:'Adwaita Mono';stroke-width:0.238927"
         x="-116.63641"
         y="64.914406"><tspan
           style="fill:#5027d5;fill-opacity:1"
           id="tspan4">Luduvo</tspan><tspan
           style="fill:#9f6fff;fill-opacity:1"
           id="tspan16">Dot</tspan><tspan
           style="fill:#5027d5;fill-opacity:1"
           id="tspan10">Net</tspan></tspan></text>
  </g>
</svg>
